<?xml version="1.0" encoding="utf-8" standalone="no"?>
<!DOCTYPE svg PUBLIC "-//W3C//DTD SVG 1.1//EN"
  "http://www.w3.org/Graphics/SVG/1.1/DTD/svg11.dtd">
<svg xmlns:xlink="http://www.w3.org/1999/xlink" width="226.08pt" height="403.2pt" viewBox="0 0 226.08 403.2" xmlns="http://www.w3.org/2000/svg" version="1.1">
 <metadata>
  <rdf:RDF xmlns:dc="http://purl.org/dc/elements/1.1/" xmlns:cc="http://creativecommons.org/ns#" xmlns:rdf="http://www.w3.org/1999/02/22-rdf-syntax-ns#">
   <cc:Work>
    <dc:type rdf:resource="http://purl.org/dc/dcmitype/StillImage"/>
    <dc:date>2023-09-04T10:42:27.970480</dc:date>
    <dc:format>image/svg+xml</dc:format>
    <dc:creator>
     <cc:Agent>
      <dc:title>Matplotlib v3.5.3, https://matplotlib.org/</dc:title>
     </cc:Agent>
    </dc:creator>
   </cc:Work>
  </rdf:RDF>
 </metadata>
 <defs>
  <style type="text/css">*{stroke-linejoin: round; stroke-linecap: butt}</style>
 </defs>
 <g id="figure_1">
  <g id="patch_1">
   <path d="M 0 403.2 
L 226.08 403.2 
L 226.08 0 
L 0 0 
z
" style="fill: #ffffff"/>
  </g>
  <g id="axes_1">
   <g id="patch_2">
    <path d="M 36.403365 97.306035 
L 152.853655 97.306035 
L 152.853655 3.800413 
L 36.403365 3.800413 
z
" style="fill: #ffffff"/>
   </g>
   <g id="line2d_1">
    <path d="M 59.693423 19.815934 
L 117.918568 80.229944 
" clip-path="url(#p8c455d5a84)" style="fill: none; stroke: #de8f05; stroke-width: 2.7; stroke-linecap: square"/>
   </g>
   <g id="line2d_2">
    <path d="M 59.693423 25.83791 
L 59.693423 13.793959 
" clip-path="url(#p8c455d5a84)" style="fill: none; stroke: #de8f05; stroke-linecap: square"/>
   </g>
   <g id="line2d_3">
    <path d="M 117.918568 93.05578 
L 117.918568 67.404108 
" clip-path="url(#p8c455d5a84)" style="fill: none; stroke: #de8f05; stroke-linecap: square"/>
   </g>
   <g id="PathCollection_1">
    <defs>
     <path id="m42ff0f3c4d" d="M 0 3.383948 
C 0.897434 3.383948 1.758231 3.027394 2.392813 2.392813 
C 3.027394 1.758231 3.383948 0.897434 3.383948 0 
C 3.383948 -0.897434 3.027394 -1.758231 2.392813 -2.392813 
C 1.758231 -3.027394 0.897434 -3.383948 0 -3.383948 
C -0.897434 -3.383948 -1.758231 -3.027394 -2.392813 -2.392813 
C -3.027394 -1.758231 -3.383948 -0.897434 -3.383948 0 
C -3.383948 0.897434 -3.027394 1.758231 -2.392813 2.392813 
C -1.758231 3.027394 -0.897434 3.383948 0 3.383948 
z
" style="stroke: #de8f05; stroke-width: 2.025"/>
    </defs>
    <g clip-path="url(#p8c455d5a84)">
     <use xlink:href="#m42ff0f3c4d" x="59.693423" y="19.815934" style="fill: #de8f05; stroke: #de8f05; stroke-width: 2.025"/>
     <use xlink:href="#m42ff0f3c4d" x="117.918568" y="80.229944" style="fill: #de8f05; stroke: #de8f05; stroke-width: 2.025"/>
    </g>
   </g>
   <g id="matplotlib.axis_1">
    <g id="xtick_1">
     <g id="line2d_4">
      <defs>
       <path id="ma0d662aa42" d="M 0 0 
L 0 3.5 
" style="stroke: #000000; stroke-width: 0.8"/>
      </defs>
      <g>
       <use xlink:href="#ma0d662aa42" x="65.515938" y="97.306035" style="stroke: #000000; stroke-width: 0.8"/>
      </g>
     </g>
     <g id="text_1">
      <text style="font: 10px 'sans-serif'; text-anchor: middle" x="65.515938" y="111.904473" transform="rotate(-0, 65.515938, 111.904473)">Pre</text>
     </g>
    </g>
    <g id="xtick_2">
     <g id="line2d_5">
      <g>
       <use xlink:href="#ma0d662aa42" x="123.741083" y="97.306035" style="stroke: #000000; stroke-width: 0.8"/>
      </g>
     </g>
     <g id="text_2">
      <text style="font: 10px 'sans-serif'; text-anchor: middle" x="123.741083" y="111.904473" transform="rotate(-0, 123.741083, 111.904473)">Post</text>
     </g>
    </g>
   </g>
   <g id="matplotlib.axis_2">
    <g id="ytick_1">
     <g id="line2d_6">
      <defs>
       <path id="me27be72955" d="M 0 0 
L -3.5 0 
" style="stroke: #000000; stroke-width: 0.8"/>
      </defs>
      <g>
       <use xlink:href="#me27be72955" x="36.403365" y="88.388749" style="stroke: #000000; stroke-width: 0.8"/>
      </g>
     </g>
     <g id="text_3">
      <text style="font: 10px 'sans-serif'; text-anchor: end" x="29.403365" y="92.187967" transform="rotate(-0, 29.403365, 92.187967)">10</text>
     </g>
    </g>
    <g id="ytick_2">
     <g id="line2d_7">
      <g>
       <use xlink:href="#me27be72955" x="36.403365" y="61.192732" style="stroke: #000000; stroke-width: 0.8"/>
      </g>
     </g>
     <g id="text_4">
      <text style="font: 10px 'sans-serif'; text-anchor: end" x="29.403365" y="64.99195" transform="rotate(-0, 29.403365, 64.99195)">20</text>
     </g>
    </g>
    <g id="ytick_3">
     <g id="line2d_8">
      <g>
       <use xlink:href="#me27be72955" x="36.403365" y="33.996715" style="stroke: #000000; stroke-width: 0.8"/>
      </g>
     </g>
     <g id="text_5">
      <text style="font: 10px 'sans-serif'; text-anchor: end" x="29.403365" y="37.795933" transform="rotate(-0, 29.403365, 37.795933)">30</text>
     </g>
    </g>
    <g id="ytick_4">
     <g id="line2d_9">
      <g>
       <use xlink:href="#me27be72955" x="36.403365" y="6.800698" style="stroke: #000000; stroke-width: 0.8"/>
      </g>
     </g>
     <g id="text_6">
      <text style="font: 10px 'sans-serif'; text-anchor: end" x="29.403365" y="10.599916" transform="rotate(-0, 29.403365, 10.599916)">40</text>
     </g>
    </g>
    <g id="text_7">
     <text style="font: 10px 'sans-serif'; text-anchor: middle" x="10.598677" y="50.553224" transform="rotate(-90, 10.598677, 50.553224)">MADRS score</text>
    </g>
   </g>
   <g id="line2d_10">
    <path d="M 65.515938 14.760508 
L 123.741083 59.932428 
" clip-path="url(#p8c455d5a84)" style="fill: none; stroke: #d55e00; stroke-width: 2.7; stroke-linecap: square"/>
   </g>
   <g id="line2d_11">
    <path d="M 65.515938 19.271066 
L 65.515938 10.380954 
" clip-path="url(#p8c455d5a84)" style="fill: none; stroke: #d55e00; stroke-linecap: square"/>
   </g>
   <g id="line2d_12">
    <path d="M 123.741083 69.22219 
L 123.741083 50.44533 
" clip-path="url(#p8c455d5a84)" style="fill: none; stroke: #d55e00; stroke-linecap: square"/>
   </g>
   <g id="PathCollection_2">
    <defs>
     <path id="mfca09f703f" d="M 0 3.383948 
C 0.897434 3.383948 1.758231 3.027394 2.392813 2.392813 
C 3.027394 1.758231 3.383948 0.897434 3.383948 0 
C 3.383948 -0.897434 3.027394 -1.758231 2.392813 -2.392813 
C 1.758231 -3.027394 0.897434 -3.383948 0 -3.383948 
C -0.897434 -3.383948 -1.758231 -3.027394 -2.392813 -2.392813 
C -3.027394 -1.758231 -3.383948 -0.897434 -3.383948 0 
C -3.383948 0.897434 -3.027394 1.758231 -2.392813 2.392813 
C -1.758231 3.027394 -0.897434 3.383948 0 3.383948 
z
" style="stroke: #d55e00; stroke-width: 2.025"/>
    </defs>
    <g clip-path="url(#p8c455d5a84)">
     <use xlink:href="#mfca09f703f" x="65.515938" y="14.760508" style="fill: #d55e00; stroke: #d55e00; stroke-width: 2.025"/>
     <use xlink:href="#mfca09f703f" x="123.741083" y="59.932428" style="fill: #d55e00; stroke: #d55e00; stroke-width: 2.025"/>
    </g>
   </g>
   <g id="patch_3">
    <path d="M 36.403365 97.306035 
L 36.403365 3.800413 
" style="fill: none; stroke: #000000; stroke-width: 0.8; stroke-linejoin: miter; stroke-linecap: square"/>
   </g>
   <g id="patch_4">
    <path d="M 36.403365 97.306035 
L 152.853655 97.306035 
" style="fill: none; stroke: #000000; stroke-width: 0.8; stroke-linejoin: miter; stroke-linecap: square"/>
   </g>
   <g id="line2d_13">
    <path d="M 71.338452 13.913502 
L 129.563597 37.553117 
" clip-path="url(#p8c455d5a84)" style="fill: none; stroke: #000000; stroke-width: 2.7; stroke-linecap: square"/>
   </g>
   <g id="line2d_14">
    <path d="M 71.338452 19.776336 
L 71.338452 8.050668 
" clip-path="url(#p8c455d5a84)" style="fill: none; stroke: #000000; stroke-linecap: square"/>
   </g>
   <g id="line2d_15">
    <path d="M 129.563597 50.110355 
L 129.563597 25.001109 
" clip-path="url(#p8c455d5a84)" style="fill: none; stroke: #000000; stroke-linecap: square"/>
   </g>
   <g id="PathCollection_3">
    <defs>
     <path id="mf0c70d4978" d="M 0 3.383948 
C 0.897434 3.383948 1.758231 3.027394 2.392813 2.392813 
C 3.027394 1.758231 3.383948 0.897434 3.383948 0 
C 3.383948 -0.897434 3.027394 -1.758231 2.392813 -2.392813 
C 1.758231 -3.027394 0.897434 -3.383948 0 -3.383948 
C -0.897434 -3.383948 -1.758231 -3.027394 -2.392813 -2.392813 
C -3.027394 -1.758231 -3.383948 -0.897434 -3.383948 0 
C -3.383948 0.897434 -3.027394 1.758231 -2.392813 2.392813 
C -1.758231 3.027394 -0.897434 3.383948 0 3.383948 
z
" style="stroke: #000000; stroke-width: 2.025"/>
    </defs>
    <g clip-path="url(#p8c455d5a84)">
     <use xlink:href="#mf0c70d4978" x="71.338452" y="13.913502" style="stroke: #000000; stroke-width: 2.025"/>
     <use xlink:href="#mf0c70d4978" x="129.563597" y="37.553117" style="stroke: #000000; stroke-width: 2.025"/>
    </g>
   </g>
  </g>
  <g id="axes_2">
   <g id="patch_5">
    <path d="M 170.855095 97.306035 
L 223.07976 97.306035 
L 223.07976 3.800413 
L 170.855095 3.800413 
z
" style="fill: #ffffff"/>
   </g>
   <g id="patch_6">
    <path d="M 172.595917 97.306035 
L 186.522495 97.306035 
L 186.522495 8.253062 
L 172.595917 8.253062 
z
" clip-path="url(#p61ed6fa339)" style="fill: #ffffff"/>
   </g>
   <g id="patch_7">
    <path d="M 190.004139 97.306035 
L 203.930716 97.306035 
L 203.930716 8.253062 
L 190.004139 8.253062 
z
" clip-path="url(#p61ed6fa339)" style="fill: #ffffff"/>
   </g>
   <g id="patch_8">
    <path d="M 207.412361 97.306035 
L 221.338938 97.306035 
L 221.338938 8.253062 
L 207.412361 8.253062 
z
" clip-path="url(#p61ed6fa339)" style="fill: #ffffff"/>
   </g>
   <g id="patch_9">
    <path d="M 172.595917 97.306035 
L 186.522495 97.306035 
L 186.522495 40.057695 
L 172.595917 40.057695 
z
" clip-path="url(#p61ed6fa339)" style="fill: #176d9c"/>
   </g>
   <g id="patch_10">
    <path d="M 190.004139 97.306035 
L 203.930716 97.306035 
L 203.930716 60.381631 
L 190.004139 60.381631 
z
" clip-path="url(#p61ed6fa339)" style="fill: #176d9c"/>
   </g>
   <g id="patch_11">
    <path d="M 207.412361 97.306035 
L 221.338938 97.306035 
L 221.338938 76.755349 
L 207.412361 76.755349 
z
" clip-path="url(#p61ed6fa339)" style="fill: #176d9c"/>
   </g>
   <g id="patch_12">
    <path d="M 172.595917 97.306035 
L 186.522495 97.306035 
L 186.522495 52.779548 
L 172.595917 52.779548 
z
" clip-path="url(#p61ed6fa339)" style="fill: #158b6a"/>
   </g>
   <g id="patch_13">
    <path d="M 190.004139 97.306035 
L 203.930716 97.306035 
L 203.930716 77.757821 
L 190.004139 77.757821 
z
" clip-path="url(#p61ed6fa339)" style="fill: #158b6a"/>
   </g>
   <g id="patch_14">
    <path d="M 207.412361 97.306035 
L 221.338938 97.306035 
L 221.338938 97.306035 
L 207.412361 97.306035 
z
" clip-path="url(#p61ed6fa339)" style="fill: #158b6a"/>
   </g>
   <g id="matplotlib.axis_3">
    <g id="xtick_3">
     <g id="line2d_16">
      <g>
       <use xlink:href="#ma0d662aa42" x="179.559206" y="97.306035" style="stroke: #000000; stroke-width: 0.8"/>
      </g>
     </g>
     <g id="text_8">
      <text style="fill: #de8f05; font: 700 10px 'sans-serif'; text-anchor: middle" x="179.559206" y="111.904473" transform="rotate(-0, 179.559206, 111.904473)">T1</text>
     </g>
    </g>
    <g id="xtick_4">
     <g id="line2d_17">
      <g>
       <use xlink:href="#ma0d662aa42" x="196.967428" y="97.306035" style="stroke: #000000; stroke-width: 0.8"/>
      </g>
     </g>
     <g id="text_9">
      <text style="fill: #d55e00; font: 700 10px 'sans-serif'; text-anchor: middle" x="196.967428" y="111.904473" transform="rotate(-0, 196.967428, 111.904473)">T2</text>
     </g>
    </g>
    <g id="xtick_5">
     <g id="line2d_18">
      <g>
       <use xlink:href="#ma0d662aa42" x="214.375649" y="97.306035" style="stroke: #000000; stroke-width: 0.8"/>
      </g>
     </g>
     <g id="text_10">
      <text style="font: 700 10px 'sans-serif'; text-anchor: middle" x="214.375649" y="111.904473" transform="rotate(-0, 214.375649, 111.904473)">T3</text>
     </g>
    </g>
   </g>
   <g id="matplotlib.axis_4"/>
   <g id="line2d_19">
    <path clip-path="url(#p61ed6fa339)" style="fill: none; stroke: #424242; stroke-width: 2.7; stroke-linecap: square"/>
   </g>
   <g id="line2d_20">
    <path clip-path="url(#p61ed6fa339)" style="fill: none; stroke: #424242; stroke-width: 2.7; stroke-linecap: square"/>
   </g>
   <g id="line2d_21">
    <path clip-path="url(#p61ed6fa339)" style="fill: none; stroke: #424242; stroke-width: 2.7; stroke-linecap: square"/>
   </g>
   <g id="line2d_22">
    <path clip-path="url(#p61ed6fa339)" style="fill: none; stroke: #424242; stroke-width: 2.7; stroke-linecap: square"/>
   </g>
   <g id="line2d_23">
    <path clip-path="url(#p61ed6fa339)" style="fill: none; stroke: #424242; stroke-width: 2.7; stroke-linecap: square"/>
   </g>
   <g id="line2d_24">
    <path clip-path="url(#p61ed6fa339)" style="fill: none; stroke: #424242; stroke-width: 2.7; stroke-linecap: square"/>
   </g>
   <g id="line2d_25">
    <path clip-path="url(#p61ed6fa339)" style="fill: none; stroke: #424242; stroke-width: 2.7; stroke-linecap: square"/>
   </g>
   <g id="line2d_26">
    <path clip-path="url(#p61ed6fa339)" style="fill: none; stroke: #424242; stroke-width: 2.7; stroke-linecap: square"/>
   </g>
   <g id="line2d_27">
    <path clip-path="url(#p61ed6fa339)" style="fill: none; stroke: #424242; stroke-width: 2.7; stroke-linecap: square"/>
   </g>
   <g id="patch_15">
    <path d="M 170.855095 97.306035 
L 223.07976 97.306035 
" style="fill: none; stroke: #000000; stroke-width: 0.8; stroke-linejoin: miter; stroke-linecap: square"/>
   </g>
   <g id="text_11">
    <path d="M 174.804675 70.964667 
L 178.289362 70.964667 
L 178.289362 71.712792 
L 175.617487 71.712792 
L 175.617487 73.320135 
Q 175.810143 73.254042 176.0028 73.221698 
Q 176.196862 73.189354 176.390925 73.189354 
Q 177.489206 73.189354 178.130456 73.791229 
Q 178.773112 74.393104 178.773112 75.421073 
Q 178.773112 76.479979 178.113581 77.067792 
Q 177.45405 77.654198 176.254518 77.654198 
Q 175.841081 77.654198 175.412175 77.583885 
Q 174.984675 77.513573 174.527643 77.372948 
L 174.527643 76.479979 
Q 174.9228 76.695135 175.344675 76.800604 
Q 175.76655 76.906073 176.236237 76.906073 
Q 176.997018 76.906073 177.439987 76.506698 
Q 177.884362 76.107323 177.884362 75.421073 
Q 177.884362 74.736229 177.439987 74.336854 
Q 176.997018 73.936073 176.236237 73.936073 
Q 175.880456 73.936073 175.526081 74.014823 
Q 175.173112 74.093573 174.804675 74.260917 
L 174.804675 70.964667 
z
M 182.419343 71.549667 
Q 181.734499 71.549667 181.388561 72.224667 
Q 181.04403 72.89826 181.04403 74.252479 
Q 181.04403 75.601073 181.388561 76.276073 
Q 181.734499 76.951073 182.419343 76.951073 
Q 183.109811 76.951073 183.454343 76.276073 
Q 183.80028 75.601073 183.80028 74.252479 
Q 183.80028 72.89826 183.454343 72.224667 
Q 183.109811 71.549667 182.419343 71.549667 
z
M 182.419343 70.846542 
Q 183.523249 70.846542 184.105436 71.719823 
Q 184.687624 72.591698 184.687624 74.252479 
Q 184.687624 75.909042 184.105436 76.782323 
Q 183.523249 77.654198 182.419343 77.654198 
Q 181.316843 77.654198 180.734655 76.782323 
Q 180.152468 75.909042 180.152468 74.252479 
Q 180.152468 72.591698 180.734655 71.719823 
Q 181.316843 70.846542 182.419343 70.846542 
z
" style="fill: #ffffff; stroke: #000000; stroke-width: 2"/>
    <path d="M 174.804675 70.964667 
L 178.289362 70.964667 
L 178.289362 71.712792 
L 175.617487 71.712792 
L 175.617487 73.320135 
Q 175.810143 73.254042 176.0028 73.221698 
Q 176.196862 73.189354 176.390925 73.189354 
Q 177.489206 73.189354 178.130456 73.791229 
Q 178.773112 74.393104 178.773112 75.421073 
Q 178.773112 76.479979 178.113581 77.067792 
Q 177.45405 77.654198 176.254518 77.654198 
Q 175.841081 77.654198 175.412175 77.583885 
Q 174.984675 77.513573 174.527643 77.372948 
L 174.527643 76.479979 
Q 174.9228 76.695135 175.344675 76.800604 
Q 175.76655 76.906073 176.236237 76.906073 
Q 176.997018 76.906073 177.439987 76.506698 
Q 177.884362 76.107323 177.884362 75.421073 
Q 177.884362 74.736229 177.439987 74.336854 
Q 176.997018 73.936073 176.236237 73.936073 
Q 175.880456 73.936073 175.526081 74.014823 
Q 175.173112 74.093573 174.804675 74.260917 
L 174.804675 70.964667 
z
M 182.419343 71.549667 
Q 181.734499 71.549667 181.388561 72.224667 
Q 181.04403 72.89826 181.04403 74.252479 
Q 181.04403 75.601073 181.388561 76.276073 
Q 181.734499 76.951073 182.419343 76.951073 
Q 183.109811 76.951073 183.454343 76.276073 
Q 183.80028 75.601073 183.80028 74.252479 
Q 183.80028 72.89826 183.454343 72.224667 
Q 183.109811 71.549667 182.419343 71.549667 
z
M 182.419343 70.846542 
Q 183.523249 70.846542 184.105436 71.719823 
Q 184.687624 72.591698 184.687624 74.252479 
Q 184.687624 75.909042 184.105436 76.782323 
Q 183.523249 77.654198 182.419343 77.654198 
Q 181.316843 77.654198 180.734655 76.782323 
Q 180.152468 75.909042 180.152468 74.252479 
Q 180.152468 72.591698 180.734655 71.719823 
Q 181.316843 70.846542 182.419343 70.846542 
z
" style="fill: #ffffff"/>
   </g>
   <g id="text_12">
    <path d="M 174.949518 48.15534 
L 176.399362 48.15534 
L 176.399362 43.14909 
L 174.82155 43.465497 
L 174.82155 42.656903 
L 176.390925 42.340497 
L 177.278268 42.340497 
L 177.278268 48.15534 
L 178.728112 48.15534 
L 178.728112 48.902059 
L 174.949518 48.902059 
L 174.949518 48.15534 
z
M 182.960749 43.113934 
L 180.719186 46.616903 
L 182.960749 46.616903 
L 182.960749 43.113934 
z
M 182.727311 42.340497 
L 183.843874 42.340497 
L 183.843874 46.616903 
L 184.780436 46.616903 
L 184.780436 47.355184 
L 183.843874 47.355184 
L 183.843874 48.902059 
L 182.960749 48.902059 
L 182.960749 47.355184 
L 179.999186 47.355184 
L 179.999186 46.498778 
L 182.727311 42.340497 
z
" style="fill: #ffffff; stroke: #000000; stroke-width: 2"/>
    <path d="M 174.949518 48.15534 
L 176.399362 48.15534 
L 176.399362 43.14909 
L 174.82155 43.465497 
L 174.82155 42.656903 
L 176.390925 42.340497 
L 177.278268 42.340497 
L 177.278268 48.15534 
L 178.728112 48.15534 
L 178.728112 48.902059 
L 174.949518 48.902059 
L 174.949518 48.15534 
z
M 182.960749 43.113934 
L 180.719186 46.616903 
L 182.960749 46.616903 
L 182.960749 43.113934 
z
M 182.727311 42.340497 
L 183.843874 42.340497 
L 183.843874 46.616903 
L 184.780436 46.616903 
L 184.780436 47.355184 
L 183.843874 47.355184 
L 183.843874 48.902059 
L 182.960749 48.902059 
L 182.960749 47.355184 
L 179.999186 47.355184 
L 179.999186 46.498778 
L 182.727311 42.340497 
z
" style="fill: #ffffff"/>
   </g>
   <g id="text_13">
    <path d="M 192.968053 89.268647 
L 196.066021 89.268647 
L 196.066021 90.015366 
L 191.900709 90.015366 
L 191.900709 89.268647 
Q 192.405553 88.745522 193.277428 87.865209 
Q 194.150709 86.983491 194.374303 86.727553 
Q 194.800396 86.249428 194.969146 85.917553 
Q 195.139303 85.585678 195.139303 85.265053 
Q 195.139303 84.741928 194.772271 84.412866 
Q 194.40524 84.082397 193.816021 84.082397 
Q 193.398365 84.082397 192.934303 84.227241 
Q 192.471646 84.372084 191.944303 84.667397 
L 191.944303 83.770209 
Q 192.480084 83.555053 192.945553 83.445366 
Q 193.412428 83.335678 193.799146 83.335678 
Q 194.818678 83.335678 195.424771 83.846147 
Q 196.030865 84.355209 196.030865 85.207397 
Q 196.030865 85.612397 195.87899 85.975209 
Q 195.728521 86.336616 195.32774 86.828803 
Q 195.218053 86.956772 194.628834 87.565678 
Q 194.041021 88.174584 192.968053 89.268647 
z
M 198.694127 89.268647 
L 201.792095 89.268647 
L 201.792095 90.015366 
L 197.626783 90.015366 
L 197.626783 89.268647 
Q 198.131627 88.745522 199.003502 87.865209 
Q 199.876783 86.983491 200.100377 86.727553 
Q 200.52647 86.249428 200.69522 85.917553 
Q 200.865377 85.585678 200.865377 85.265053 
Q 200.865377 84.741928 200.498345 84.412866 
Q 200.131314 84.082397 199.542095 84.082397 
Q 199.124439 84.082397 198.660377 84.227241 
Q 198.19772 84.372084 197.670377 84.667397 
L 197.670377 83.770209 
Q 198.206158 83.555053 198.671627 83.445366 
Q 199.138502 83.335678 199.52522 83.335678 
Q 200.544752 83.335678 201.150845 83.846147 
Q 201.756939 84.355209 201.756939 85.207397 
Q 201.756939 85.612397 201.605064 85.975209 
Q 201.454595 86.336616 201.053814 86.828803 
Q 200.944127 86.956772 200.354908 87.565678 
Q 199.767095 88.174584 198.694127 89.268647 
z
" style="fill: #ffffff; stroke: #000000; stroke-width: 2"/>
    <path d="M 192.968053 89.268647 
L 196.066021 89.268647 
L 196.066021 90.015366 
L 191.900709 90.015366 
L 191.900709 89.268647 
Q 192.405553 88.745522 193.277428 87.865209 
Q 194.150709 86.983491 194.374303 86.727553 
Q 194.800396 86.249428 194.969146 85.917553 
Q 195.139303 85.585678 195.139303 85.265053 
Q 195.139303 84.741928 194.772271 84.412866 
Q 194.40524 84.082397 193.816021 84.082397 
Q 193.398365 84.082397 192.934303 84.227241 
Q 192.471646 84.372084 191.944303 84.667397 
L 191.944303 83.770209 
Q 192.480084 83.555053 192.945553 83.445366 
Q 193.412428 83.335678 193.799146 83.335678 
Q 194.818678 83.335678 195.424771 83.846147 
Q 196.030865 84.355209 196.030865 85.207397 
Q 196.030865 85.612397 195.87899 85.975209 
Q 195.728521 86.336616 195.32774 86.828803 
Q 195.218053 86.956772 194.628834 87.565678 
Q 194.041021 88.174584 192.968053 89.268647 
z
M 198.694127 89.268647 
L 201.792095 89.268647 
L 201.792095 90.015366 
L 197.626783 90.015366 
L 197.626783 89.268647 
Q 198.131627 88.745522 199.003502 87.865209 
Q 199.876783 86.983491 200.100377 86.727553 
Q 200.52647 86.249428 200.69522 85.917553 
Q 200.865377 85.585678 200.865377 85.265053 
Q 200.865377 84.741928 200.498345 84.412866 
Q 200.131314 84.082397 199.542095 84.082397 
Q 199.124439 84.082397 198.660377 84.227241 
Q 198.19772 84.372084 197.670377 84.667397 
L 197.670377 83.770209 
Q 198.206158 83.555053 198.671627 83.445366 
Q 199.138502 83.335678 199.52522 83.335678 
Q 200.544752 83.335678 201.150845 83.846147 
Q 201.756939 84.355209 201.756939 85.207397 
Q 201.756939 85.612397 201.605064 85.975209 
Q 201.454595 86.336616 201.053814 86.828803 
Q 200.944127 86.956772 200.354908 87.565678 
Q 199.767095 88.174584 198.694127 89.268647 
z
" style="fill: #ffffff"/>
   </g>
   <g id="text_14">
    <path d="M 192.968053 70.806445 
L 196.066021 70.806445 
L 196.066021 71.553164 
L 191.900709 71.553164 
L 191.900709 70.806445 
Q 192.405553 70.28332 193.277428 69.403008 
Q 194.150709 68.521289 194.374303 68.265351 
Q 194.800396 67.787226 194.969146 67.455351 
Q 195.139303 67.123476 195.139303 66.802851 
Q 195.139303 66.279726 194.772271 65.950664 
Q 194.40524 65.620195 193.816021 65.620195 
Q 193.398365 65.620195 192.934303 65.765039 
Q 192.471646 65.909883 191.944303 66.205195 
L 191.944303 65.308008 
Q 192.480084 65.092851 192.945553 64.983164 
Q 193.412428 64.873476 193.799146 64.873476 
Q 194.818678 64.873476 195.424771 65.383945 
Q 196.030865 65.893008 196.030865 66.745195 
Q 196.030865 67.150195 195.87899 67.513008 
Q 195.728521 67.874414 195.32774 68.366601 
Q 195.218053 68.49457 194.628834 69.103476 
Q 194.041021 69.712383 192.968053 70.806445 
z
M 199.827564 65.576601 
Q 199.14272 65.576601 198.796783 66.251601 
Q 198.452252 66.925195 198.452252 68.279414 
Q 198.452252 69.628008 198.796783 70.303008 
Q 199.14272 70.978008 199.827564 70.978008 
Q 200.518033 70.978008 200.862564 70.303008 
Q 201.208502 69.628008 201.208502 68.279414 
Q 201.208502 66.925195 200.862564 66.251601 
Q 200.518033 65.576601 199.827564 65.576601 
z
M 199.827564 64.873476 
Q 200.93147 64.873476 201.513658 65.746758 
Q 202.095845 66.618633 202.095845 68.279414 
Q 202.095845 69.935976 201.513658 70.809258 
Q 200.93147 71.681133 199.827564 71.681133 
Q 198.725064 71.681133 198.142877 70.809258 
Q 197.560689 69.935976 197.560689 68.279414 
Q 197.560689 66.618633 198.142877 65.746758 
Q 198.725064 64.873476 199.827564 64.873476 
z
" style="fill: #ffffff; stroke: #000000; stroke-width: 2"/>
    <path d="M 192.968053 70.806445 
L 196.066021 70.806445 
L 196.066021 71.553164 
L 191.900709 71.553164 
L 191.900709 70.806445 
Q 192.405553 70.28332 193.277428 69.403008 
Q 194.150709 68.521289 194.374303 68.265351 
Q 194.800396 67.787226 194.969146 67.455351 
Q 195.139303 67.123476 195.139303 66.802851 
Q 195.139303 66.279726 194.772271 65.950664 
Q 194.40524 65.620195 193.816021 65.620195 
Q 193.398365 65.620195 192.934303 65.765039 
Q 192.471646 65.909883 191.944303 66.205195 
L 191.944303 65.308008 
Q 192.480084 65.092851 192.945553 64.983164 
Q 193.412428 64.873476 193.799146 64.873476 
Q 194.818678 64.873476 195.424771 65.383945 
Q 196.030865 65.893008 196.030865 66.745195 
Q 196.030865 67.150195 195.87899 67.513008 
Q 195.728521 67.874414 195.32774 68.366601 
Q 195.218053 68.49457 194.628834 69.103476 
Q 194.041021 69.712383 192.968053 70.806445 
z
M 199.827564 65.576601 
Q 199.14272 65.576601 198.796783 66.251601 
Q 198.452252 66.925195 198.452252 68.279414 
Q 198.452252 69.628008 198.796783 70.303008 
Q 199.14272 70.978008 199.827564 70.978008 
Q 200.518033 70.978008 200.862564 70.303008 
Q 201.208502 69.628008 201.208502 68.279414 
Q 201.208502 66.925195 200.862564 66.251601 
Q 200.518033 65.576601 199.827564 65.576601 
z
M 199.827564 64.873476 
Q 200.93147 64.873476 201.513658 65.746758 
Q 202.095845 66.618633 202.095845 68.279414 
Q 202.095845 69.935976 201.513658 70.809258 
Q 200.93147 71.681133 199.827564 71.681133 
Q 198.725064 71.681133 198.142877 70.809258 
Q 197.560689 69.935976 197.560689 68.279414 
Q 197.560689 66.618633 198.142877 65.746758 
Q 198.725064 64.873476 199.827564 64.873476 
z
" style="fill: #ffffff"/>
   </g>
   <g id="text_15">
    <path d="M 210.376274 88.767411 
L 213.474243 88.767411 
L 213.474243 89.514129 
L 209.30893 89.514129 
L 209.30893 88.767411 
Q 209.813774 88.244286 210.685649 87.363973 
Q 211.55893 86.482254 211.782524 86.226317 
Q 212.208618 85.748192 212.377368 85.416317 
Q 212.547524 85.084442 212.547524 84.763817 
Q 212.547524 84.240692 212.180493 83.911629 
Q 211.813462 83.581161 211.224243 83.581161 
Q 210.806587 83.581161 210.342524 83.726004 
Q 209.879868 83.870848 209.352524 84.166161 
L 209.352524 83.268973 
Q 209.888305 83.053817 210.353774 82.944129 
Q 210.820649 82.834442 211.207368 82.834442 
Q 212.226899 82.834442 212.832993 83.344911 
Q 213.439087 83.853973 213.439087 84.706161 
Q 213.439087 85.111161 213.287212 85.473973 
Q 213.136743 85.835379 212.735962 86.327567 
Q 212.626274 86.455536 212.037055 87.064442 
Q 211.449243 87.673348 210.376274 88.767411 
z
M 218.027505 85.976004 
Q 218.664536 86.112411 219.021723 86.544129 
Q 219.380317 86.974442 219.380317 87.607254 
Q 219.380317 88.577567 218.712348 89.110536 
Q 218.04438 89.642098 216.813911 89.642098 
Q 216.40188 89.642098 215.964536 89.560536 
Q 215.527192 89.478973 215.061723 89.315848 
L 215.061723 88.459442 
Q 215.430161 88.674598 215.868911 88.784286 
Q 216.309067 88.893973 216.788598 88.893973 
Q 217.622505 88.893973 218.059848 88.564911 
Q 218.497192 88.235848 218.497192 87.607254 
Q 218.497192 87.026473 218.090786 86.700223 
Q 217.68438 86.372567 216.960161 86.372567 
L 216.195161 86.372567 
L 216.195161 85.642723 
L 216.995317 85.642723 
Q 217.649223 85.642723 217.996567 85.381161 
Q 218.343911 85.119598 218.343911 84.627411 
Q 218.343911 84.122567 217.985317 83.852567 
Q 217.62813 83.581161 216.960161 83.581161 
Q 216.594536 83.581161 216.17688 83.661317 
Q 215.759223 83.740067 215.258598 83.906004 
L 215.258598 83.115692 
Q 215.764848 82.975067 216.206411 82.904754 
Q 216.647973 82.834442 217.038911 82.834442 
Q 218.050005 82.834442 218.637817 83.294286 
Q 219.227036 83.752723 219.227036 84.534598 
Q 219.227036 85.080223 218.914848 85.455692 
Q 218.602661 85.831161 218.027505 85.976004 
z
" style="fill: #ffffff; stroke: #000000; stroke-width: 2"/>
    <path d="M 210.376274 88.767411 
L 213.474243 88.767411 
L 213.474243 89.514129 
L 209.30893 89.514129 
L 209.30893 88.767411 
Q 209.813774 88.244286 210.685649 87.363973 
Q 211.55893 86.482254 211.782524 86.226317 
Q 212.208618 85.748192 212.377368 85.416317 
Q 212.547524 85.084442 212.547524 84.763817 
Q 212.547524 84.240692 212.180493 83.911629 
Q 211.813462 83.581161 211.224243 83.581161 
Q 210.806587 83.581161 210.342524 83.726004 
Q 209.879868 83.870848 209.352524 84.166161 
L 209.352524 83.268973 
Q 209.888305 83.053817 210.353774 82.944129 
Q 210.820649 82.834442 211.207368 82.834442 
Q 212.226899 82.834442 212.832993 83.344911 
Q 213.439087 83.853973 213.439087 84.706161 
Q 213.439087 85.111161 213.287212 85.473973 
Q 213.136743 85.835379 212.735962 86.327567 
Q 212.626274 86.455536 212.037055 87.064442 
Q 211.449243 87.673348 210.376274 88.767411 
z
M 218.027505 85.976004 
Q 218.664536 86.112411 219.021723 86.544129 
Q 219.380317 86.974442 219.380317 87.607254 
Q 219.380317 88.577567 218.712348 89.110536 
Q 218.04438 89.642098 216.813911 89.642098 
Q 216.40188 89.642098 215.964536 89.560536 
Q 215.527192 89.478973 215.061723 89.315848 
L 215.061723 88.459442 
Q 215.430161 88.674598 215.868911 88.784286 
Q 216.309067 88.893973 216.788598 88.893973 
Q 217.622505 88.893973 218.059848 88.564911 
Q 218.497192 88.235848 218.497192 87.607254 
Q 218.497192 87.026473 218.090786 86.700223 
Q 217.68438 86.372567 216.960161 86.372567 
L 216.195161 86.372567 
L 216.195161 85.642723 
L 216.995317 85.642723 
Q 217.649223 85.642723 217.996567 85.381161 
Q 218.343911 85.119598 218.343911 84.627411 
Q 218.343911 84.122567 217.985317 83.852567 
Q 217.62813 83.581161 216.960161 83.581161 
Q 216.594536 83.581161 216.17688 83.661317 
Q 215.759223 83.740067 215.258598 83.906004 
L 215.258598 83.115692 
Q 215.764848 82.975067 216.206411 82.904754 
Q 216.647973 82.834442 217.038911 82.834442 
Q 218.050005 82.834442 218.637817 83.294286 
Q 219.227036 83.752723 219.227036 84.534598 
Q 219.227036 85.080223 218.914848 85.455692 
Q 218.602661 85.831161 218.027505 85.976004 
z
" style="fill: #ffffff"/>
   </g>
  </g>
  <g id="axes_3">
   <g id="patch_16">
    <path d="M 36.403365 213.490262 
L 152.853655 213.490262 
L 152.853655 119.98464 
L 36.403365 119.98464 
z
" style="fill: #ffffff"/>
   </g>
   <g id="line2d_28">
    <path d="M 59.693423 160.468201 
L 117.918568 200.041815 
" clip-path="url(#pd5ccea4b35)" style="fill: none; stroke: #de8f05; stroke-width: 2.7; stroke-linecap: square"/>
   </g>
   <g id="line2d_29">
    <path d="M 59.693423 172.024766 
L 59.693423 148.703072 
" clip-path="url(#pd5ccea4b35)" style="fill: none; stroke: #de8f05; stroke-linecap: square"/>
   </g>
   <g id="line2d_30">
    <path d="M 117.918568 209.240007 
L 117.918568 190.415801 
" clip-path="url(#pd5ccea4b35)" style="fill: none; stroke: #de8f05; stroke-linecap: square"/>
   </g>
   <g id="PathCollection_4">
    <g clip-path="url(#pd5ccea4b35)">
     <use xlink:href="#m42ff0f3c4d" x="59.693423" y="160.468201" style="fill: #de8f05; stroke: #de8f05; stroke-width: 2.025"/>
     <use xlink:href="#m42ff0f3c4d" x="117.918568" y="200.041815" style="fill: #de8f05; stroke: #de8f05; stroke-width: 2.025"/>
    </g>
   </g>
   <g id="matplotlib.axis_5">
    <g id="xtick_6">
     <g id="line2d_31">
      <g>
       <use xlink:href="#ma0d662aa42" x="65.515938" y="213.490262" style="stroke: #000000; stroke-width: 0.8"/>
      </g>
     </g>
     <g id="text_16">
      <text style="font: 10px 'sans-serif'; text-anchor: middle" x="65.515938" y="228.0887" transform="rotate(-0, 65.515938, 228.0887)">Pre</text>
     </g>
    </g>
    <g id="xtick_7">
     <g id="line2d_32">
      <g>
       <use xlink:href="#ma0d662aa42" x="123.741083" y="213.490262" style="stroke: #000000; stroke-width: 0.8"/>
      </g>
     </g>
     <g id="text_17">
      <text style="font: 10px 'sans-serif'; text-anchor: middle" x="123.741083" y="228.0887" transform="rotate(-0, 123.741083, 228.0887)">Post</text>
     </g>
    </g>
   </g>
   <g id="matplotlib.axis_6">
    <g id="ytick_5">
     <g id="line2d_33">
      <g>
       <use xlink:href="#me27be72955" x="36.403365" y="197.260967" style="stroke: #000000; stroke-width: 0.8"/>
      </g>
     </g>
     <g id="text_18">
      <text style="font: 10px 'sans-serif'; text-anchor: end" x="29.403365" y="201.060185" transform="rotate(-0, 29.403365, 201.060185)">10</text>
     </g>
    </g>
    <g id="ytick_6">
     <g id="line2d_34">
      <g>
       <use xlink:href="#me27be72955" x="36.403365" y="167.313366" style="stroke: #000000; stroke-width: 0.8"/>
      </g>
     </g>
     <g id="text_19">
      <text style="font: 10px 'sans-serif'; text-anchor: end" x="29.403365" y="171.112585" transform="rotate(-0, 29.403365, 171.112585)">20</text>
     </g>
    </g>
    <g id="ytick_7">
     <g id="line2d_35">
      <g>
       <use xlink:href="#me27be72955" x="36.403365" y="137.365766" style="stroke: #000000; stroke-width: 0.8"/>
      </g>
     </g>
     <g id="text_20">
      <text style="font: 10px 'sans-serif'; text-anchor: end" x="29.403365" y="141.164985" transform="rotate(-0, 29.403365, 141.164985)">30</text>
     </g>
    </g>
    <g id="text_21">
     <text style="font: 10px 'sans-serif'; text-anchor: middle" x="10.598677" y="166.737451" transform="rotate(-90, 10.598677, 166.737451)">HAMA score</text>
    </g>
   </g>
   <g id="line2d_36">
    <path d="M 65.515938 141.45617 
L 123.741083 173.88723 
" clip-path="url(#pd5ccea4b35)" style="fill: none; stroke: #d55e00; stroke-width: 2.7; stroke-linecap: square"/>
   </g>
   <g id="line2d_37">
    <path d="M 65.515938 148.689246 
L 65.515938 134.296137 
" clip-path="url(#pd5ccea4b35)" style="fill: none; stroke: #d55e00; stroke-linecap: square"/>
   </g>
   <g id="line2d_38">
    <path d="M 123.741083 182.07169 
L 123.741083 165.487293 
" clip-path="url(#pd5ccea4b35)" style="fill: none; stroke: #d55e00; stroke-linecap: square"/>
   </g>
   <g id="PathCollection_5">
    <g clip-path="url(#pd5ccea4b35)">
     <use xlink:href="#mfca09f703f" x="65.515938" y="141.45617" style="fill: #d55e00; stroke: #d55e00; stroke-width: 2.025"/>
     <use xlink:href="#mfca09f703f" x="123.741083" y="173.88723" style="fill: #d55e00; stroke: #d55e00; stroke-width: 2.025"/>
    </g>
   </g>
   <g id="patch_17">
    <path d="M 36.403365 213.490262 
L 36.403365 119.98464 
" style="fill: none; stroke: #000000; stroke-width: 0.8; stroke-linejoin: miter; stroke-linecap: square"/>
   </g>
   <g id="patch_18">
    <path d="M 36.403365 213.490262 
L 152.853655 213.490262 
" style="fill: none; stroke: #000000; stroke-width: 0.8; stroke-linejoin: miter; stroke-linecap: square"/>
   </g>
   <g id="line2d_39">
    <path d="M 71.338452 136.444302 
L 129.563597 153.261031 
" clip-path="url(#pd5ccea4b35)" style="fill: none; stroke: #000000; stroke-width: 2.7; stroke-linecap: square"/>
   </g>
   <g id="line2d_40">
    <path d="M 71.338452 147.732243 
L 71.338452 124.234896 
" clip-path="url(#pd5ccea4b35)" style="fill: none; stroke: #000000; stroke-linecap: square"/>
   </g>
   <g id="line2d_41">
    <path d="M 129.563597 165.24583 
L 129.563597 138.978329 
" clip-path="url(#pd5ccea4b35)" style="fill: none; stroke: #000000; stroke-linecap: square"/>
   </g>
   <g id="PathCollection_6">
    <g clip-path="url(#pd5ccea4b35)">
     <use xlink:href="#mf0c70d4978" x="71.338452" y="136.444302" style="stroke: #000000; stroke-width: 2.025"/>
     <use xlink:href="#mf0c70d4978" x="129.563597" y="153.261031" style="stroke: #000000; stroke-width: 2.025"/>
    </g>
   </g>
  </g>
  <g id="axes_4">
   <g id="patch_19">
    <path d="M 170.855095 213.490262 
L 223.07976 213.490262 
L 223.07976 119.98464 
L 170.855095 119.98464 
z
" style="fill: #ffffff"/>
   </g>
   <g id="patch_20">
    <path d="M 172.595917 213.490262 
L 186.522495 213.490262 
L 186.522495 124.437289 
L 172.595917 124.437289 
z
" clip-path="url(#p32ea2be9f6)" style="fill: #ffffff"/>
   </g>
   <g id="patch_21">
    <path d="M 190.004139 213.490262 
L 203.930716 213.490262 
L 203.930716 124.437289 
L 190.004139 124.437289 
z
" clip-path="url(#p32ea2be9f6)" style="fill: #ffffff"/>
   </g>
   <g id="patch_22">
    <path d="M 207.412361 213.490262 
L 221.338938 213.490262 
L 221.338938 124.437289 
L 207.412361 124.437289 
z
" clip-path="url(#p32ea2be9f6)" style="fill: #ffffff"/>
   </g>
   <g id="patch_23">
    <path d="M 172.595917 213.490262 
L 186.522495 213.490262 
L 186.522495 156.241922 
L 172.595917 156.241922 
z
" clip-path="url(#p32ea2be9f6)" style="fill: #176d9c"/>
   </g>
   <g id="patch_24">
    <path d="M 190.004139 213.490262 
L 203.930716 213.490262 
L 203.930716 187.425977 
L 190.004139 187.425977 
z
" clip-path="url(#p32ea2be9f6)" style="fill: #176d9c"/>
   </g>
   <g id="patch_25">
    <path d="M 207.412361 213.490262 
L 221.338938 213.490262 
L 221.338938 206.640033 
L 207.412361 206.640033 
z
" clip-path="url(#p32ea2be9f6)" style="fill: #176d9c"/>
   </g>
   <g id="patch_26">
    <path d="M 172.595917 213.490262 
L 186.522495 213.490262 
L 186.522495 168.963775 
L 172.595917 168.963775 
z
" clip-path="url(#p32ea2be9f6)" style="fill: #158b6a"/>
   </g>
   <g id="patch_27">
    <path d="M 190.004139 213.490262 
L 203.930716 213.490262 
L 203.930716 202.630143 
L 190.004139 202.630143 
z
" clip-path="url(#p32ea2be9f6)" style="fill: #158b6a"/>
   </g>
   <g id="patch_28">
    <path d="M 207.412361 213.490262 
L 221.338938 213.490262 
L 221.338938 213.490262 
L 207.412361 213.490262 
z
" clip-path="url(#p32ea2be9f6)" style="fill: #158b6a"/>
   </g>
   <g id="matplotlib.axis_7">
    <g id="xtick_8">
     <g id="line2d_42">
      <g>
       <use xlink:href="#ma0d662aa42" x="179.559206" y="213.490262" style="stroke: #000000; stroke-width: 0.8"/>
      </g>
     </g>
     <g id="text_22">
      <text style="fill: #de8f05; font: 700 10px 'sans-serif'; text-anchor: middle" x="179.559206" y="228.0887" transform="rotate(-0, 179.559206, 228.0887)">T1</text>
     </g>
    </g>
    <g id="xtick_9">
     <g id="line2d_43">
      <g>
       <use xlink:href="#ma0d662aa42" x="196.967428" y="213.490262" style="stroke: #000000; stroke-width: 0.8"/>
      </g>
     </g>
     <g id="text_23">
      <text style="fill: #d55e00; font: 700 10px 'sans-serif'; text-anchor: middle" x="196.967428" y="228.0887" transform="rotate(-0, 196.967428, 228.0887)">T2</text>
     </g>
    </g>
    <g id="xtick_10">
     <g id="line2d_44">
      <g>
       <use xlink:href="#ma0d662aa42" x="214.375649" y="213.490262" style="stroke: #000000; stroke-width: 0.8"/>
      </g>
     </g>
     <g id="text_24">
      <text style="font: 700 10px 'sans-serif'; text-anchor: middle" x="214.375649" y="228.0887" transform="rotate(-0, 214.375649, 228.0887)">T3</text>
     </g>
    </g>
   </g>
   <g id="matplotlib.axis_8"/>
   <g id="line2d_45">
    <path clip-path="url(#p32ea2be9f6)" style="fill: none; stroke: #424242; stroke-width: 2.7; stroke-linecap: square"/>
   </g>
   <g id="line2d_46">
    <path clip-path="url(#p32ea2be9f6)" style="fill: none; stroke: #424242; stroke-width: 2.7; stroke-linecap: square"/>
   </g>
   <g id="line2d_47">
    <path clip-path="url(#p32ea2be9f6)" style="fill: none; stroke: #424242; stroke-width: 2.7; stroke-linecap: square"/>
   </g>
   <g id="line2d_48">
    <path clip-path="url(#p32ea2be9f6)" style="fill: none; stroke: #424242; stroke-width: 2.7; stroke-linecap: square"/>
   </g>
   <g id="line2d_49">
    <path clip-path="url(#p32ea2be9f6)" style="fill: none; stroke: #424242; stroke-width: 2.7; stroke-linecap: square"/>
   </g>
   <g id="line2d_50">
    <path clip-path="url(#p32ea2be9f6)" style="fill: none; stroke: #424242; stroke-width: 2.7; stroke-linecap: square"/>
   </g>
   <g id="line2d_51">
    <path clip-path="url(#p32ea2be9f6)" style="fill: none; stroke: #424242; stroke-width: 2.7; stroke-linecap: square"/>
   </g>
   <g id="line2d_52">
    <path clip-path="url(#p32ea2be9f6)" style="fill: none; stroke: #424242; stroke-width: 2.7; stroke-linecap: square"/>
   </g>
   <g id="line2d_53">
    <path clip-path="url(#p32ea2be9f6)" style="fill: none; stroke: #424242; stroke-width: 2.7; stroke-linecap: square"/>
   </g>
   <g id="patch_29">
    <path d="M 170.855095 213.490262 
L 223.07976 213.490262 
" style="fill: none; stroke: #000000; stroke-width: 0.8; stroke-linejoin: miter; stroke-linecap: square"/>
   </g>
   <g id="text_25">
    <path d="M 174.804675 187.148894 
L 178.289362 187.148894 
L 178.289362 187.897019 
L 175.617487 187.897019 
L 175.617487 189.504363 
Q 175.810143 189.438269 176.0028 189.405925 
Q 176.196862 189.373581 176.390925 189.373581 
Q 177.489206 189.373581 178.130456 189.975456 
Q 178.773112 190.577331 178.773112 191.6053 
Q 178.773112 192.664206 178.113581 193.252019 
Q 177.45405 193.838425 176.254518 193.838425 
Q 175.841081 193.838425 175.412175 193.768113 
Q 174.984675 193.6978 174.527643 193.557175 
L 174.527643 192.664206 
Q 174.9228 192.879363 175.344675 192.984831 
Q 175.76655 193.0903 176.236237 193.0903 
Q 176.997018 193.0903 177.439987 192.690925 
Q 177.884362 192.29155 177.884362 191.6053 
Q 177.884362 190.920456 177.439987 190.521081 
Q 176.997018 190.1203 176.236237 190.1203 
Q 175.880456 190.1203 175.526081 190.19905 
Q 175.173112 190.2778 174.804675 190.445144 
L 174.804675 187.148894 
z
M 182.419343 187.733894 
Q 181.734499 187.733894 181.388561 188.408894 
Q 181.04403 189.082488 181.04403 190.436706 
Q 181.04403 191.7853 181.388561 192.4603 
Q 181.734499 193.1353 182.419343 193.1353 
Q 183.109811 193.1353 183.454343 192.4603 
Q 183.80028 191.7853 183.80028 190.436706 
Q 183.80028 189.082488 183.454343 188.408894 
Q 183.109811 187.733894 182.419343 187.733894 
z
M 182.419343 187.030769 
Q 183.523249 187.030769 184.105436 187.90405 
Q 184.687624 188.775925 184.687624 190.436706 
Q 184.687624 192.093269 184.105436 192.96655 
Q 183.523249 193.838425 182.419343 193.838425 
Q 181.316843 193.838425 180.734655 192.96655 
Q 180.152468 192.093269 180.152468 190.436706 
Q 180.152468 188.775925 180.734655 187.90405 
Q 181.316843 187.030769 182.419343 187.030769 
z
" style="fill: #ffffff; stroke: #000000; stroke-width: 2"/>
    <path d="M 174.804675 187.148894 
L 178.289362 187.148894 
L 178.289362 187.897019 
L 175.617487 187.897019 
L 175.617487 189.504363 
Q 175.810143 189.438269 176.0028 189.405925 
Q 176.196862 189.373581 176.390925 189.373581 
Q 177.489206 189.373581 178.130456 189.975456 
Q 178.773112 190.577331 178.773112 191.6053 
Q 178.773112 192.664206 178.113581 193.252019 
Q 177.45405 193.838425 176.254518 193.838425 
Q 175.841081 193.838425 175.412175 193.768113 
Q 174.984675 193.6978 174.527643 193.557175 
L 174.527643 192.664206 
Q 174.9228 192.879363 175.344675 192.984831 
Q 175.76655 193.0903 176.236237 193.0903 
Q 176.997018 193.0903 177.439987 192.690925 
Q 177.884362 192.29155 177.884362 191.6053 
Q 177.884362 190.920456 177.439987 190.521081 
Q 176.997018 190.1203 176.236237 190.1203 
Q 175.880456 190.1203 175.526081 190.19905 
Q 175.173112 190.2778 174.804675 190.445144 
L 174.804675 187.148894 
z
M 182.419343 187.733894 
Q 181.734499 187.733894 181.388561 188.408894 
Q 181.04403 189.082488 181.04403 190.436706 
Q 181.04403 191.7853 181.388561 192.4603 
Q 181.734499 193.1353 182.419343 193.1353 
Q 183.109811 193.1353 183.454343 192.4603 
Q 183.80028 191.7853 183.80028 190.436706 
Q 183.80028 189.082488 183.454343 188.408894 
Q 183.109811 187.733894 182.419343 187.733894 
z
M 182.419343 187.030769 
Q 183.523249 187.030769 184.105436 187.90405 
Q 184.687624 188.775925 184.687624 190.436706 
Q 184.687624 192.093269 184.105436 192.96655 
Q 183.523249 193.838425 182.419343 193.838425 
Q 181.316843 193.838425 180.734655 192.96655 
Q 180.152468 192.093269 180.152468 190.436706 
Q 180.152468 188.775925 180.734655 187.90405 
Q 181.316843 187.030769 182.419343 187.030769 
z
" style="fill: #ffffff"/>
   </g>
   <g id="text_26">
    <path d="M 174.949518 164.339568 
L 176.399362 164.339568 
L 176.399362 159.333318 
L 174.82155 159.649724 
L 174.82155 158.84113 
L 176.390925 158.524724 
L 177.278268 158.524724 
L 177.278268 164.339568 
L 178.728112 164.339568 
L 178.728112 165.086286 
L 174.949518 165.086286 
L 174.949518 164.339568 
z
M 182.960749 159.298161 
L 180.719186 162.80113 
L 182.960749 162.80113 
L 182.960749 159.298161 
z
M 182.727311 158.524724 
L 183.843874 158.524724 
L 183.843874 162.80113 
L 184.780436 162.80113 
L 184.780436 163.539411 
L 183.843874 163.539411 
L 183.843874 165.086286 
L 182.960749 165.086286 
L 182.960749 163.539411 
L 179.999186 163.539411 
L 179.999186 162.683005 
L 182.727311 158.524724 
z
" style="fill: #ffffff; stroke: #000000; stroke-width: 2"/>
    <path d="M 174.949518 164.339568 
L 176.399362 164.339568 
L 176.399362 159.333318 
L 174.82155 159.649724 
L 174.82155 158.84113 
L 176.390925 158.524724 
L 177.278268 158.524724 
L 177.278268 164.339568 
L 178.728112 164.339568 
L 178.728112 165.086286 
L 174.949518 165.086286 
L 174.949518 164.339568 
z
M 182.960749 159.298161 
L 180.719186 162.80113 
L 182.960749 162.80113 
L 182.960749 159.298161 
z
M 182.727311 158.524724 
L 183.843874 158.524724 
L 183.843874 162.80113 
L 184.780436 162.80113 
L 184.780436 163.539411 
L 183.843874 163.539411 
L 183.843874 165.086286 
L 182.960749 165.086286 
L 182.960749 163.539411 
L 179.999186 163.539411 
L 179.999186 162.683005 
L 182.727311 158.524724 
z
" style="fill: #ffffff"/>
   </g>
   <g id="text_27">
    <path d="M 192.35774 209.796922 
L 193.807584 209.796922 
L 193.807584 204.790672 
L 192.229771 205.107078 
L 192.229771 204.298484 
L 193.799146 203.982078 
L 194.68649 203.982078 
L 194.68649 209.796922 
L 196.136334 209.796922 
L 196.136334 210.54364 
L 192.35774 210.54364 
L 192.35774 209.796922 
z
M 198.694127 209.796922 
L 201.792095 209.796922 
L 201.792095 210.54364 
L 197.626783 210.54364 
L 197.626783 209.796922 
Q 198.131627 209.273797 199.003502 208.393484 
Q 199.876783 207.511765 200.100377 207.255828 
Q 200.52647 206.777703 200.69522 206.445828 
Q 200.865377 206.113953 200.865377 205.793328 
Q 200.865377 205.270203 200.498345 204.94114 
Q 200.131314 204.610672 199.542095 204.610672 
Q 199.124439 204.610672 198.660377 204.755515 
Q 198.19772 204.900359 197.670377 205.195672 
L 197.670377 204.298484 
Q 198.206158 204.083328 198.671627 203.97364 
Q 199.138502 203.863953 199.52522 203.863953 
Q 200.544752 203.863953 201.150845 204.374422 
Q 201.756939 204.883484 201.756939 205.735672 
Q 201.756939 206.140672 201.605064 206.503484 
Q 201.454595 206.86489 201.053814 207.357078 
Q 200.944127 207.485047 200.354908 208.093953 
Q 199.767095 208.702859 198.694127 209.796922 
z
" style="fill: #ffffff; stroke: #000000; stroke-width: 2"/>
    <path d="M 192.35774 209.796922 
L 193.807584 209.796922 
L 193.807584 204.790672 
L 192.229771 205.107078 
L 192.229771 204.298484 
L 193.799146 203.982078 
L 194.68649 203.982078 
L 194.68649 209.796922 
L 196.136334 209.796922 
L 196.136334 210.54364 
L 192.35774 210.54364 
L 192.35774 209.796922 
z
M 198.694127 209.796922 
L 201.792095 209.796922 
L 201.792095 210.54364 
L 197.626783 210.54364 
L 197.626783 209.796922 
Q 198.131627 209.273797 199.003502 208.393484 
Q 199.876783 207.511765 200.100377 207.255828 
Q 200.52647 206.777703 200.69522 206.445828 
Q 200.865377 206.113953 200.865377 205.793328 
Q 200.865377 205.270203 200.498345 204.94114 
Q 200.131314 204.610672 199.542095 204.610672 
Q 199.124439 204.610672 198.660377 204.755515 
Q 198.19772 204.900359 197.670377 205.195672 
L 197.670377 204.298484 
Q 198.206158 204.083328 198.671627 203.97364 
Q 199.138502 203.863953 199.52522 203.863953 
Q 200.544752 203.863953 201.150845 204.374422 
Q 201.756939 204.883484 201.756939 205.735672 
Q 201.756939 206.140672 201.605064 206.503484 
Q 201.454595 206.86489 201.053814 207.357078 
Q 200.944127 207.485047 200.354908 208.093953 
Q 199.767095 208.702859 198.694127 209.796922 
z
" style="fill: #ffffff"/>
   </g>
   <g id="text_28">
    <path d="M 192.35774 196.764779 
L 193.807584 196.764779 
L 193.807584 191.758529 
L 192.229771 192.074935 
L 192.229771 191.266342 
L 193.799146 190.949935 
L 194.68649 190.949935 
L 194.68649 196.764779 
L 196.136334 196.764779 
L 196.136334 197.511498 
L 192.35774 197.511498 
L 192.35774 196.764779 
z
M 197.705533 190.949935 
L 201.924283 190.949935 
L 201.924283 191.328217 
L 199.542095 197.511498 
L 198.615377 197.511498 
L 200.856939 191.69806 
L 197.705533 191.69806 
L 197.705533 190.949935 
z
" style="fill: #ffffff; stroke: #000000; stroke-width: 2"/>
    <path d="M 192.35774 196.764779 
L 193.807584 196.764779 
L 193.807584 191.758529 
L 192.229771 192.074935 
L 192.229771 191.266342 
L 193.799146 190.949935 
L 194.68649 190.949935 
L 194.68649 196.764779 
L 196.136334 196.764779 
L 196.136334 197.511498 
L 192.35774 197.511498 
L 192.35774 196.764779 
z
M 197.705533 190.949935 
L 201.924283 190.949935 
L 201.924283 191.328217 
L 199.542095 197.511498 
L 198.615377 197.511498 
L 200.856939 191.69806 
L 197.705533 191.69806 
L 197.705533 190.949935 
z
" style="fill: #ffffff"/>
   </g>
   <g id="text_29">
    <path d="M 214.372837 209.432335 
Q 213.740024 209.432335 213.377212 209.771242 
Q 213.015805 210.110148 213.015805 210.702179 
Q 213.015805 211.295617 213.377212 211.634523 
Q 213.740024 211.973429 214.372837 211.973429 
Q 215.005649 211.973429 215.369868 211.633117 
Q 215.735493 211.291398 215.735493 210.702179 
Q 215.735493 210.110148 215.37268 209.771242 
Q 215.011274 209.432335 214.372837 209.432335 
z
M 213.485493 209.05546 
Q 212.914555 208.914835 212.595337 208.523898 
Q 212.277524 208.131554 212.277524 207.569054 
Q 212.277524 206.78296 212.837212 206.325929 
Q 213.398305 205.868898 214.372837 205.868898 
Q 215.352993 205.868898 215.911274 206.325929 
Q 216.469555 206.78296 216.469555 207.569054 
Q 216.469555 208.131554 216.150337 208.523898 
Q 215.832524 208.914835 215.265805 209.05546 
Q 215.907055 209.204523 216.264243 209.64046 
Q 216.622837 210.074992 216.622837 210.702179 
Q 216.622837 211.657023 216.040649 212.167492 
Q 215.458462 212.676554 214.372837 212.676554 
Q 213.288618 212.676554 212.705024 212.167492 
Q 212.122837 211.657023 212.122837 210.702179 
Q 212.122837 210.074992 212.482837 209.64046 
Q 212.844243 209.204523 213.485493 209.05546 
z
M 213.160649 207.653429 
Q 213.160649 208.162492 213.478462 208.44796 
Q 213.79768 208.733429 214.372837 208.733429 
Q 214.94518 208.733429 215.267212 208.44796 
Q 215.590649 208.162492 215.590649 207.653429 
Q 215.590649 207.14296 215.267212 206.857492 
Q 214.94518 206.572023 214.372837 206.572023 
Q 213.79768 206.572023 213.478462 206.857492 
Q 213.160649 207.14296 213.160649 207.653429 
z
" style="fill: #ffffff; stroke: #000000; stroke-width: 2"/>
    <path d="M 214.372837 209.432335 
Q 213.740024 209.432335 213.377212 209.771242 
Q 213.015805 210.110148 213.015805 210.702179 
Q 213.015805 211.295617 213.377212 211.634523 
Q 213.740024 211.973429 214.372837 211.973429 
Q 215.005649 211.973429 215.369868 211.633117 
Q 215.735493 211.291398 215.735493 210.702179 
Q 215.735493 210.110148 215.37268 209.771242 
Q 215.011274 209.432335 214.372837 209.432335 
z
M 213.485493 209.05546 
Q 212.914555 208.914835 212.595337 208.523898 
Q 212.277524 208.131554 212.277524 207.569054 
Q 212.277524 206.78296 212.837212 206.325929 
Q 213.398305 205.868898 214.372837 205.868898 
Q 215.352993 205.868898 215.911274 206.325929 
Q 216.469555 206.78296 216.469555 207.569054 
Q 216.469555 208.131554 216.150337 208.523898 
Q 215.832524 208.914835 215.265805 209.05546 
Q 215.907055 209.204523 216.264243 209.64046 
Q 216.622837 210.074992 216.622837 210.702179 
Q 216.622837 211.657023 216.040649 212.167492 
Q 215.458462 212.676554 214.372837 212.676554 
Q 213.288618 212.676554 212.705024 212.167492 
Q 212.122837 211.657023 212.122837 210.702179 
Q 212.122837 210.074992 212.482837 209.64046 
Q 212.844243 209.204523 213.485493 209.05546 
z
M 213.160649 207.653429 
Q 213.160649 208.162492 213.478462 208.44796 
Q 213.79768 208.733429 214.372837 208.733429 
Q 214.94518 208.733429 215.267212 208.44796 
Q 215.590649 208.162492 215.590649 207.653429 
Q 215.590649 207.14296 215.267212 206.857492 
Q 214.94518 206.572023 214.372837 206.572023 
Q 213.79768 206.572023 213.478462 206.857492 
Q 213.160649 207.14296 213.160649 207.653429 
z
" style="fill: #ffffff"/>
   </g>
  </g>
  <g id="axes_5">
   <g id="patch_30">
    <path d="M 36.403365 298.505949 
L 223.07976 298.505949 
L 223.07976 236.168867 
L 36.403365 236.168867 
z
" style="fill: #ffffff"/>
   </g>
   <g id="line2d_54">
    <path d="M 47.292821 249.918065 
L 78.405554 260.080952 
L 109.518286 264.974194 
L 140.631019 269.867436 
L 171.743751 272.878662 
L 202.856484 283.360045 
" clip-path="url(#p8ab377201e)" style="fill: none; stroke: #de8f05; stroke-width: 1.89; stroke-linecap: square"/>
   </g>
   <g id="line2d_55">
    <path d="M 47.292821 261.586565 
L 47.292821 239.002371 
" clip-path="url(#p8ab377201e)" style="fill: none; stroke: #de8f05; stroke-linecap: square"/>
   </g>
   <g id="line2d_56">
    <path d="M 78.405554 270.996646 
L 78.405554 250.275648 
" clip-path="url(#p8ab377201e)" style="fill: none; stroke: #de8f05; stroke-linecap: square"/>
   </g>
   <g id="line2d_57">
    <path d="M 109.518286 275.889888 
L 109.518286 253.682097 
" clip-path="url(#p8ab377201e)" style="fill: none; stroke: #de8f05; stroke-linecap: square"/>
   </g>
   <g id="line2d_58">
    <path d="M 140.631019 280.78313 
L 140.631019 257.813123 
" clip-path="url(#p8ab377201e)" style="fill: none; stroke: #de8f05; stroke-linecap: square"/>
   </g>
   <g id="line2d_59">
    <path d="M 171.743751 284.547163 
L 171.743751 260.833759 
" clip-path="url(#p8ab377201e)" style="fill: none; stroke: #de8f05; stroke-linecap: square"/>
   </g>
   <g id="line2d_60">
    <path d="M 202.856484 295.672445 
L 202.856484 271.358572 
" clip-path="url(#p8ab377201e)" style="fill: none; stroke: #de8f05; stroke-linecap: square"/>
   </g>
   <g id="PathCollection_7">
    <defs>
     <path id="m7bf2ddc4e2" d="M 0 2.368764 
C 0.628203 2.368764 1.230762 2.119176 1.674969 1.674969 
C 2.119176 1.230762 2.368764 0.628203 2.368764 0 
C 2.368764 -0.628203 2.119176 -1.230762 1.674969 -1.674969 
C 1.230762 -2.119176 0.628203 -2.368764 0 -2.368764 
C -0.628203 -2.368764 -1.230762 -2.119176 -1.674969 -1.674969 
C -2.119176 -1.230762 -2.368764 -0.628203 -2.368764 0 
C -2.368764 0.628203 -2.119176 1.230762 -1.674969 1.674969 
C -1.230762 2.119176 -0.628203 2.368764 0 2.368764 
z
" style="stroke: #de8f05; stroke-width: 1.4175"/>
    </defs>
    <g clip-path="url(#p8ab377201e)">
     <use xlink:href="#m7bf2ddc4e2" x="47.292821" y="249.918065" style="fill: #de8f05; stroke: #de8f05; stroke-width: 1.4175"/>
     <use xlink:href="#m7bf2ddc4e2" x="78.405554" y="260.080952" style="fill: #de8f05; stroke: #de8f05; stroke-width: 1.4175"/>
     <use xlink:href="#m7bf2ddc4e2" x="109.518286" y="264.974194" style="fill: #de8f05; stroke: #de8f05; stroke-width: 1.4175"/>
     <use xlink:href="#m7bf2ddc4e2" x="140.631019" y="269.867436" style="fill: #de8f05; stroke: #de8f05; stroke-width: 1.4175"/>
     <use xlink:href="#m7bf2ddc4e2" x="171.743751" y="272.878662" style="fill: #de8f05; stroke: #de8f05; stroke-width: 1.4175"/>
     <use xlink:href="#m7bf2ddc4e2" x="202.856484" y="283.360045" style="fill: #de8f05; stroke: #de8f05; stroke-width: 1.4175"/>
    </g>
   </g>
   <g id="matplotlib.axis_9">
    <g id="xtick_11">
     <g id="line2d_61">
      <g>
       <use xlink:href="#ma0d662aa42" x="51.959731" y="298.505949" style="stroke: #000000; stroke-width: 0.8"/>
      </g>
     </g>
     <g id="text_30">
      <text style="font: 10px 'sans-serif'; text-anchor: middle" x="51.959731" y="313.104386" transform="rotate(-0, 51.959731, 313.104386)">Pre</text>
     </g>
    </g>
    <g id="xtick_12">
     <g id="line2d_62">
      <g>
       <use xlink:href="#ma0d662aa42" x="83.072464" y="298.505949" style="stroke: #000000; stroke-width: 0.8"/>
      </g>
     </g>
     <g id="text_31">
      <text style="font: 10px 'sans-serif'; text-anchor: middle" x="83.072464" y="313.104386" transform="rotate(-0, 83.072464, 313.104386)">W1</text>
     </g>
    </g>
    <g id="xtick_13">
     <g id="line2d_63">
      <g>
       <use xlink:href="#ma0d662aa42" x="114.185196" y="298.505949" style="stroke: #000000; stroke-width: 0.8"/>
      </g>
     </g>
     <g id="text_32">
      <text style="font: 10px 'sans-serif'; text-anchor: middle" x="114.185196" y="313.104386" transform="rotate(-0, 114.185196, 313.104386)">W2</text>
     </g>
    </g>
    <g id="xtick_14">
     <g id="line2d_64">
      <g>
       <use xlink:href="#ma0d662aa42" x="145.297929" y="298.505949" style="stroke: #000000; stroke-width: 0.8"/>
      </g>
     </g>
     <g id="text_33">
      <text style="font: 10px 'sans-serif'; text-anchor: middle" x="145.297929" y="313.104386" transform="rotate(-0, 145.297929, 313.104386)">W3</text>
     </g>
    </g>
    <g id="xtick_15">
     <g id="line2d_65">
      <g>
       <use xlink:href="#ma0d662aa42" x="176.410661" y="298.505949" style="stroke: #000000; stroke-width: 0.8"/>
      </g>
     </g>
     <g id="text_34">
      <text style="font: 10px 'sans-serif'; text-anchor: middle" x="176.410661" y="313.104386" transform="rotate(-0, 176.410661, 313.104386)">W4</text>
     </g>
    </g>
    <g id="xtick_16">
     <g id="line2d_66">
      <g>
       <use xlink:href="#ma0d662aa42" x="207.523394" y="298.505949" style="stroke: #000000; stroke-width: 0.8"/>
      </g>
     </g>
     <g id="text_35">
      <text style="font: 10px 'sans-serif'; text-anchor: middle" x="207.523394" y="313.104386" transform="rotate(-0, 207.523394, 313.104386)">Post</text>
     </g>
    </g>
   </g>
   <g id="matplotlib.axis_10">
    <g id="ytick_8">
     <g id="line2d_67">
      <g>
       <use xlink:href="#me27be72955" x="36.403365" y="294.71005" style="stroke: #000000; stroke-width: 0.8"/>
      </g>
     </g>
     <g id="text_36">
      <text style="font: 10px 'sans-serif'; text-anchor: end" x="29.403365" y="298.509269" transform="rotate(-0, 29.403365, 298.509269)">5</text>
     </g>
    </g>
    <g id="ytick_9">
     <g id="line2d_68">
      <g>
       <use xlink:href="#me27be72955" x="36.403365" y="268.361824" style="stroke: #000000; stroke-width: 0.8"/>
      </g>
     </g>
     <g id="text_37">
      <text style="font: 10px 'sans-serif'; text-anchor: end" x="29.403365" y="272.161042" transform="rotate(-0, 29.403365, 272.161042)">10</text>
     </g>
    </g>
    <g id="ytick_10">
     <g id="line2d_69">
      <g>
       <use xlink:href="#me27be72955" x="36.403365" y="242.013597" style="stroke: #000000; stroke-width: 0.8"/>
      </g>
     </g>
     <g id="text_38">
      <text style="font: 10px 'sans-serif'; text-anchor: end" x="29.403365" y="245.812816" transform="rotate(-0, 29.403365, 245.812816)">15</text>
     </g>
    </g>
    <g id="text_39">
     <text style="font: 10px 'sans-serif'; text-anchor: middle" x="10.598677" y="267.337408" transform="rotate(-90, 10.598677, 267.337408)">HADS-D score</text>
    </g>
   </g>
   <g id="line2d_70">
    <path d="M 51.959731 246.624536 
L 83.072464 257.559051 
L 114.185196 262.449538 
L 145.297929 264.40959 
L 176.410661 266.912671 
L 207.523394 273.245885 
" clip-path="url(#p8ab377201e)" style="fill: none; stroke: #d55e00; stroke-width: 1.89; stroke-linecap: square"/>
   </g>
   <g id="line2d_71">
    <path d="M 51.959731 252.427573 
L 51.959731 240.209788 
" clip-path="url(#p8ab377201e)" style="fill: none; stroke: #d55e00; stroke-linecap: square"/>
   </g>
   <g id="line2d_72">
    <path d="M 83.072464 264.277848 
L 83.072464 251.498958 
" clip-path="url(#p8ab377201e)" style="fill: none; stroke: #d55e00; stroke-linecap: square"/>
   </g>
   <g id="line2d_73">
    <path d="M 114.185196 269.390047 
L 114.185196 254.86639 
" clip-path="url(#p8ab377201e)" style="fill: none; stroke: #d55e00; stroke-linecap: square"/>
   </g>
   <g id="line2d_74">
    <path d="M 145.297929 271.414093 
L 145.297929 256.37338 
" clip-path="url(#p8ab377201e)" style="fill: none; stroke: #d55e00; stroke-linecap: square"/>
   </g>
   <g id="line2d_75">
    <path d="M 176.410661 275.347397 
L 176.410661 257.565477 
" clip-path="url(#p8ab377201e)" style="fill: none; stroke: #d55e00; stroke-linecap: square"/>
   </g>
   <g id="line2d_76">
    <path d="M 207.523394 281.60984 
L 207.523394 264.502772 
" clip-path="url(#p8ab377201e)" style="fill: none; stroke: #d55e00; stroke-linecap: square"/>
   </g>
   <g id="PathCollection_8">
    <defs>
     <path id="mc70d6204d5" d="M 0 2.368764 
C 0.628203 2.368764 1.230762 2.119176 1.674969 1.674969 
C 2.119176 1.230762 2.368764 0.628203 2.368764 0 
C 2.368764 -0.628203 2.119176 -1.230762 1.674969 -1.674969 
C 1.230762 -2.119176 0.628203 -2.368764 0 -2.368764 
C -0.628203 -2.368764 -1.230762 -2.119176 -1.674969 -1.674969 
C -2.119176 -1.230762 -2.368764 -0.628203 -2.368764 0 
C -2.368764 0.628203 -2.119176 1.230762 -1.674969 1.674969 
C -1.230762 2.119176 -0.628203 2.368764 0 2.368764 
z
" style="stroke: #d55e00; stroke-width: 1.4175"/>
    </defs>
    <g clip-path="url(#p8ab377201e)">
     <use xlink:href="#mc70d6204d5" x="51.959731" y="246.624536" style="fill: #d55e00; stroke: #d55e00; stroke-width: 1.4175"/>
     <use xlink:href="#mc70d6204d5" x="83.072464" y="257.559051" style="fill: #d55e00; stroke: #d55e00; stroke-width: 1.4175"/>
     <use xlink:href="#mc70d6204d5" x="114.185196" y="262.449538" style="fill: #d55e00; stroke: #d55e00; stroke-width: 1.4175"/>
     <use xlink:href="#mc70d6204d5" x="145.297929" y="264.40959" style="fill: #d55e00; stroke: #d55e00; stroke-width: 1.4175"/>
     <use xlink:href="#mc70d6204d5" x="176.410661" y="266.912671" style="fill: #d55e00; stroke: #d55e00; stroke-width: 1.4175"/>
     <use xlink:href="#mc70d6204d5" x="207.523394" y="273.245885" style="fill: #d55e00; stroke: #d55e00; stroke-width: 1.4175"/>
    </g>
   </g>
   <g id="patch_31">
    <path d="M 36.403365 298.505949 
L 36.403365 236.168867 
" style="fill: none; stroke: #000000; stroke-width: 0.8; stroke-linejoin: miter; stroke-linecap: square"/>
   </g>
   <g id="patch_32">
    <path d="M 36.403365 298.505949 
L 223.07976 298.505949 
" style="fill: none; stroke: #000000; stroke-width: 0.8; stroke-linejoin: miter; stroke-linecap: square"/>
   </g>
   <g id="line2d_77">
    <path d="M 56.626641 250.120743 
L 87.739374 254.579674 
L 118.852106 251.336815 
L 149.964839 260.254677 
L 181.077571 264.713608 
L 212.190304 260.896493 
" clip-path="url(#p8ab377201e)" style="fill: none; stroke: #000000; stroke-width: 1.89; stroke-linecap: square"/>
   </g>
   <g id="line2d_78">
    <path d="M 56.626641 261.470749 
L 56.626641 239.98681 
" clip-path="url(#p8ab377201e)" style="fill: none; stroke: #000000; stroke-linecap: square"/>
   </g>
   <g id="line2d_79">
    <path d="M 87.739374 266.740394 
L 87.739374 244.040383 
" clip-path="url(#p8ab377201e)" style="fill: none; stroke: #000000; stroke-linecap: square"/>
   </g>
   <g id="line2d_80">
    <path d="M 118.852106 262.686821 
L 118.852106 241.202882 
" clip-path="url(#p8ab377201e)" style="fill: none; stroke: #000000; stroke-linecap: square"/>
   </g>
   <g id="line2d_81">
    <path d="M 149.964839 269.577896 
L 149.964839 250.515967 
" clip-path="url(#p8ab377201e)" style="fill: none; stroke: #000000; stroke-linecap: square"/>
   </g>
   <g id="line2d_82">
    <path d="M 181.077571 277.279685 
L 181.077571 252.552887 
" clip-path="url(#p8ab377201e)" style="fill: none; stroke: #000000; stroke-linecap: square"/>
   </g>
   <g id="line2d_83">
    <path d="M 212.190304 274.951874 
L 212.190304 247.283242 
" clip-path="url(#p8ab377201e)" style="fill: none; stroke: #000000; stroke-linecap: square"/>
   </g>
   <g id="PathCollection_9">
    <defs>
     <path id="m99174463f9" d="M 0 2.368764 
C 0.628203 2.368764 1.230762 2.119176 1.674969 1.674969 
C 2.119176 1.230762 2.368764 0.628203 2.368764 0 
C 2.368764 -0.628203 2.119176 -1.230762 1.674969 -1.674969 
C 1.230762 -2.119176 0.628203 -2.368764 0 -2.368764 
C -0.628203 -2.368764 -1.230762 -2.119176 -1.674969 -1.674969 
C -2.119176 -1.230762 -2.368764 -0.628203 -2.368764 0 
C -2.368764 0.628203 -2.119176 1.230762 -1.674969 1.674969 
C -1.230762 2.119176 -0.628203 2.368764 0 2.368764 
z
" style="stroke: #000000; stroke-width: 1.4175"/>
    </defs>
    <g clip-path="url(#p8ab377201e)">
     <use xlink:href="#m99174463f9" x="56.626641" y="250.120743" style="stroke: #000000; stroke-width: 1.4175"/>
     <use xlink:href="#m99174463f9" x="87.739374" y="254.579674" style="stroke: #000000; stroke-width: 1.4175"/>
     <use xlink:href="#m99174463f9" x="118.852106" y="251.336815" style="stroke: #000000; stroke-width: 1.4175"/>
     <use xlink:href="#m99174463f9" x="149.964839" y="260.254677" style="stroke: #000000; stroke-width: 1.4175"/>
     <use xlink:href="#m99174463f9" x="181.077571" y="264.713608" style="stroke: #000000; stroke-width: 1.4175"/>
     <use xlink:href="#m99174463f9" x="212.190304" y="260.896493" style="stroke: #000000; stroke-width: 1.4175"/>
    </g>
   </g>
  </g>
  <g id="axes_6">
   <g id="patch_33">
    <path d="M 36.403365 383.521635 
L 223.07976 383.521635 
L 223.07976 321.184554 
L 36.403365 321.184554 
z
" style="fill: #ffffff"/>
   </g>
   <g id="line2d_84">
    <path d="M 47.292821 337.821802 
L 78.405554 346.634015 
L 109.518286 360.252888 
L 140.631019 361.053998 
L 171.743751 369.065101 
L 202.856484 368.880229 
" clip-path="url(#pd2a2c64cb0)" style="fill: none; stroke: #de8f05; stroke-width: 1.89; stroke-linecap: square"/>
   </g>
   <g id="line2d_85">
    <path d="M 47.292821 349.848469 
L 47.292821 326.596246 
" clip-path="url(#pd2a2c64cb0)" style="fill: none; stroke: #de8f05; stroke-linecap: square"/>
   </g>
   <g id="line2d_86">
    <path d="M 78.405554 357.058461 
L 78.405554 336.219582 
" clip-path="url(#pd2a2c64cb0)" style="fill: none; stroke: #de8f05; stroke-linecap: square"/>
   </g>
   <g id="line2d_87">
    <path d="M 109.518286 369.465656 
L 109.518286 350.239011 
" clip-path="url(#pd2a2c64cb0)" style="fill: none; stroke: #de8f05; stroke-linecap: square"/>
   </g>
   <g id="line2d_88">
    <path d="M 140.631019 371.478445 
L 140.631019 350.639566 
" clip-path="url(#pd2a2c64cb0)" style="fill: none; stroke: #de8f05; stroke-linecap: square"/>
   </g>
   <g id="line2d_89">
    <path d="M 171.743751 379.880088 
L 171.743751 357.048447 
" clip-path="url(#pd2a2c64cb0)" style="fill: none; stroke: #de8f05; stroke-linecap: square"/>
   </g>
   <g id="line2d_90">
    <path d="M 202.856484 380.688131 
L 202.856484 357.449003 
" clip-path="url(#pd2a2c64cb0)" style="fill: none; stroke: #de8f05; stroke-linecap: square"/>
   </g>
   <g id="PathCollection_10">
    <g clip-path="url(#pd2a2c64cb0)">
     <use xlink:href="#m7bf2ddc4e2" x="47.292821" y="337.821802" style="fill: #de8f05; stroke: #de8f05; stroke-width: 1.4175"/>
     <use xlink:href="#m7bf2ddc4e2" x="78.405554" y="346.634015" style="fill: #de8f05; stroke: #de8f05; stroke-width: 1.4175"/>
     <use xlink:href="#m7bf2ddc4e2" x="109.518286" y="360.252888" style="fill: #de8f05; stroke: #de8f05; stroke-width: 1.4175"/>
     <use xlink:href="#m7bf2ddc4e2" x="140.631019" y="361.053998" style="fill: #de8f05; stroke: #de8f05; stroke-width: 1.4175"/>
     <use xlink:href="#m7bf2ddc4e2" x="171.743751" y="369.065101" style="fill: #de8f05; stroke: #de8f05; stroke-width: 1.4175"/>
     <use xlink:href="#m7bf2ddc4e2" x="202.856484" y="368.880229" style="fill: #de8f05; stroke: #de8f05; stroke-width: 1.4175"/>
    </g>
   </g>
   <g id="matplotlib.axis_11">
    <g id="xtick_17">
     <g id="line2d_91">
      <g>
       <use xlink:href="#ma0d662aa42" x="51.959731" y="383.521635" style="stroke: #000000; stroke-width: 0.8"/>
      </g>
     </g>
     <g id="text_40">
      <text style="font: 10px 'sans-serif'; text-anchor: middle" x="51.959731" y="398.120072" transform="rotate(-0, 51.959731, 398.120072)">Pre</text>
     </g>
    </g>
    <g id="xtick_18">
     <g id="line2d_92">
      <g>
       <use xlink:href="#ma0d662aa42" x="83.072464" y="383.521635" style="stroke: #000000; stroke-width: 0.8"/>
      </g>
     </g>
     <g id="text_41">
      <text style="font: 10px 'sans-serif'; text-anchor: middle" x="83.072464" y="398.120072" transform="rotate(-0, 83.072464, 398.120072)">W1</text>
     </g>
    </g>
    <g id="xtick_19">
     <g id="line2d_93">
      <g>
       <use xlink:href="#ma0d662aa42" x="114.185196" y="383.521635" style="stroke: #000000; stroke-width: 0.8"/>
      </g>
     </g>
     <g id="text_42">
      <text style="font: 10px 'sans-serif'; text-anchor: middle" x="114.185196" y="398.120072" transform="rotate(-0, 114.185196, 398.120072)">W2</text>
     </g>
    </g>
    <g id="xtick_20">
     <g id="line2d_94">
      <g>
       <use xlink:href="#ma0d662aa42" x="145.297929" y="383.521635" style="stroke: #000000; stroke-width: 0.8"/>
      </g>
     </g>
     <g id="text_43">
      <text style="font: 10px 'sans-serif'; text-anchor: middle" x="145.297929" y="398.120072" transform="rotate(-0, 145.297929, 398.120072)">W3</text>
     </g>
    </g>
    <g id="xtick_21">
     <g id="line2d_95">
      <g>
       <use xlink:href="#ma0d662aa42" x="176.410661" y="383.521635" style="stroke: #000000; stroke-width: 0.8"/>
      </g>
     </g>
     <g id="text_44">
      <text style="font: 10px 'sans-serif'; text-anchor: middle" x="176.410661" y="398.120072" transform="rotate(-0, 176.410661, 398.120072)">W4</text>
     </g>
    </g>
    <g id="xtick_22">
     <g id="line2d_96">
      <g>
       <use xlink:href="#ma0d662aa42" x="207.523394" y="383.521635" style="stroke: #000000; stroke-width: 0.8"/>
      </g>
     </g>
     <g id="text_45">
      <text style="font: 10px 'sans-serif'; text-anchor: middle" x="207.523394" y="398.120072" transform="rotate(-0, 207.523394, 398.120072)">Post</text>
     </g>
    </g>
   </g>
   <g id="matplotlib.axis_12">
    <g id="ytick_11">
     <g id="line2d_97">
      <g>
       <use xlink:href="#me27be72955" x="36.403365" y="382.683974" style="stroke: #000000; stroke-width: 0.8"/>
      </g>
     </g>
     <g id="text_46">
      <text style="font: 10px 'sans-serif'; text-anchor: end" x="29.403365" y="386.483193" transform="rotate(-0, 29.403365, 386.483193)">5</text>
     </g>
    </g>
    <g id="ytick_12">
     <g id="line2d_98">
      <g>
       <use xlink:href="#me27be72955" x="36.403365" y="354.645117" style="stroke: #000000; stroke-width: 0.8"/>
      </g>
     </g>
     <g id="text_47">
      <text style="font: 10px 'sans-serif'; text-anchor: end" x="29.403365" y="358.444336" transform="rotate(-0, 29.403365, 358.444336)">10</text>
     </g>
    </g>
    <g id="ytick_13">
     <g id="line2d_99">
      <g>
       <use xlink:href="#me27be72955" x="36.403365" y="326.60626" style="stroke: #000000; stroke-width: 0.8"/>
      </g>
     </g>
     <g id="text_48">
      <text style="font: 10px 'sans-serif'; text-anchor: end" x="29.403365" y="330.405478" transform="rotate(-0, 29.403365, 330.405478)">15</text>
     </g>
    </g>
    <g id="text_49">
     <text style="font: 10px 'sans-serif'; text-anchor: middle" x="10.598677" y="352.353094" transform="rotate(-90, 10.598677, 352.353094)">HADS-A score</text>
    </g>
   </g>
   <g id="line2d_100">
    <path d="M 51.959731 331.092477 
L 83.072464 341.887437 
L 114.185196 346.165072 
L 145.297929 350.299094 
L 176.410661 353.663757 
L 207.523394 354.645117 
" clip-path="url(#pd2a2c64cb0)" style="fill: none; stroke: #d55e00; stroke-width: 1.89; stroke-linecap: square"/>
   </g>
   <g id="line2d_101">
    <path d="M 51.959731 338.540747 
L 51.959731 324.361713 
" clip-path="url(#pd2a2c64cb0)" style="fill: none; stroke: #d55e00; stroke-linecap: square"/>
   </g>
   <g id="line2d_102">
    <path d="M 83.072464 349.04085 
L 83.072464 335.084594 
" clip-path="url(#pd2a2c64cb0)" style="fill: none; stroke: #d55e00; stroke-linecap: square"/>
   </g>
   <g id="line2d_103">
    <path d="M 114.185196 352.733687 
L 114.185196 339.326326 
" clip-path="url(#pd2a2c64cb0)" style="fill: none; stroke: #d55e00; stroke-linecap: square"/>
   </g>
   <g id="line2d_104">
    <path d="M 145.297929 359.552344 
L 145.297929 341.92163 
" clip-path="url(#pd2a2c64cb0)" style="fill: none; stroke: #d55e00; stroke-linecap: square"/>
   </g>
   <g id="line2d_105">
    <path d="M 176.410661 362.076582 
L 176.410661 344.971711 
" clip-path="url(#pd2a2c64cb0)" style="fill: none; stroke: #d55e00; stroke-linecap: square"/>
   </g>
   <g id="line2d_106">
    <path d="M 207.523394 362.444706 
L 207.523394 346.165072 
" clip-path="url(#pd2a2c64cb0)" style="fill: none; stroke: #d55e00; stroke-linecap: square"/>
   </g>
   <g id="PathCollection_11">
    <g clip-path="url(#pd2a2c64cb0)">
     <use xlink:href="#mc70d6204d5" x="51.959731" y="331.092477" style="fill: #d55e00; stroke: #d55e00; stroke-width: 1.4175"/>
     <use xlink:href="#mc70d6204d5" x="83.072464" y="341.887437" style="fill: #d55e00; stroke: #d55e00; stroke-width: 1.4175"/>
     <use xlink:href="#mc70d6204d5" x="114.185196" y="346.165072" style="fill: #d55e00; stroke: #d55e00; stroke-width: 1.4175"/>
     <use xlink:href="#mc70d6204d5" x="145.297929" y="350.299094" style="fill: #d55e00; stroke: #d55e00; stroke-width: 1.4175"/>
     <use xlink:href="#mc70d6204d5" x="176.410661" y="353.663757" style="fill: #d55e00; stroke: #d55e00; stroke-width: 1.4175"/>
     <use xlink:href="#mc70d6204d5" x="207.523394" y="354.645117" style="fill: #d55e00; stroke: #d55e00; stroke-width: 1.4175"/>
    </g>
   </g>
   <g id="patch_34">
    <path d="M 36.403365 383.521635 
L 36.403365 321.184554 
" style="fill: none; stroke: #000000; stroke-width: 0.8; stroke-linejoin: miter; stroke-linecap: square"/>
   </g>
   <g id="patch_35">
    <path d="M 36.403365 383.521635 
L 223.07976 383.521635 
" style="fill: none; stroke: #000000; stroke-width: 0.8; stroke-linejoin: miter; stroke-linecap: square"/>
   </g>
   <g id="line2d_107">
    <path d="M 56.626641 335.664967 
L 87.739374 338.253169 
L 118.852106 342.998207 
L 149.964839 344.292308 
L 181.077571 349.900079 
L 212.190304 341.560317 
" clip-path="url(#pd2a2c64cb0)" style="fill: none; stroke: #000000; stroke-width: 1.89; stroke-linecap: square"/>
   </g>
   <g id="line2d_108">
    <path d="M 56.626641 346.017776 
L 56.626641 324.018057 
" clip-path="url(#pd2a2c64cb0)" style="fill: none; stroke: #000000; stroke-linecap: square"/>
   </g>
   <g id="line2d_109">
    <path d="M 87.739374 348.605978 
L 87.739374 328.320943 
" clip-path="url(#pd2a2c64cb0)" style="fill: none; stroke: #000000; stroke-linecap: square"/>
   </g>
   <g id="line2d_110">
    <path d="M 118.852106 353.3618 
L 118.852106 332.645398 
" clip-path="url(#pd2a2c64cb0)" style="fill: none; stroke: #000000; stroke-linecap: square"/>
   </g>
   <g id="line2d_111">
    <path d="M 149.964839 356.812736 
L 149.964839 332.203247 
" clip-path="url(#pd2a2c64cb0)" style="fill: none; stroke: #000000; stroke-linecap: square"/>
   </g>
   <g id="line2d_112">
    <path d="M 181.077571 361.978356 
L 181.077571 336.959068 
" clip-path="url(#pd2a2c64cb0)" style="fill: none; stroke: #000000; stroke-linecap: square"/>
   </g>
   <g id="line2d_113">
    <path d="M 212.190304 355.770985 
L 212.190304 327.530267 
" clip-path="url(#pd2a2c64cb0)" style="fill: none; stroke: #000000; stroke-linecap: square"/>
   </g>
   <g id="PathCollection_12">
    <g clip-path="url(#pd2a2c64cb0)">
     <use xlink:href="#m99174463f9" x="56.626641" y="335.664967" style="stroke: #000000; stroke-width: 1.4175"/>
     <use xlink:href="#m99174463f9" x="87.739374" y="338.253169" style="stroke: #000000; stroke-width: 1.4175"/>
     <use xlink:href="#m99174463f9" x="118.852106" y="342.998207" style="stroke: #000000; stroke-width: 1.4175"/>
     <use xlink:href="#m99174463f9" x="149.964839" y="344.292308" style="stroke: #000000; stroke-width: 1.4175"/>
     <use xlink:href="#m99174463f9" x="181.077571" y="349.900079" style="stroke: #000000; stroke-width: 1.4175"/>
     <use xlink:href="#m99174463f9" x="212.190304" y="341.560317" style="stroke: #000000; stroke-width: 1.4175"/>
    </g>
   </g>
  </g>
 </g>
 <defs>
  <clipPath id="p8c455d5a84">
   <rect x="36.403365" y="3.800413" width="116.45029" height="93.505622"/>
  </clipPath>
  <clipPath id="p61ed6fa339">
   <rect x="170.855095" y="3.800413" width="52.224665" height="93.505622"/>
  </clipPath>
  <clipPath id="pd5ccea4b35">
   <rect x="36.403365" y="119.98464" width="116.45029" height="93.505622"/>
  </clipPath>
  <clipPath id="p32ea2be9f6">
   <rect x="170.855095" y="119.98464" width="52.224665" height="93.505622"/>
  </clipPath>
  <clipPath id="p8ab377201e">
   <rect x="36.403365" y="236.168867" width="186.676395" height="62.337081"/>
  </clipPath>
  <clipPath id="pd2a2c64cb0">
   <rect x="36.403365" y="321.184554" width="186.676395" height="62.337081"/>
  </clipPath>
 </defs>
</svg>
