<?xml version="1.0" encoding="utf-8" standalone="no"?>
<!DOCTYPE svg PUBLIC "-//W3C//DTD SVG 1.1//EN"
  "http://www.w3.org/Graphics/SVG/1.1/DTD/svg11.dtd">
<svg xmlns:xlink="http://www.w3.org/1999/xlink" width="226.08pt" height="403.2pt" viewBox="0 0 226.08 403.2" xmlns="http://www.w3.org/2000/svg" version="1.1">
 <metadata>
  <rdf:RDF xmlns:dc="http://purl.org/dc/elements/1.1/" xmlns:cc="http://creativecommons.org/ns#" xmlns:rdf="http://www.w3.org/1999/02/22-rdf-syntax-ns#">
   <cc:Work>
    <dc:type rdf:resource="http://purl.org/dc/dcmitype/StillImage"/>
    <dc:date>2023-05-31T10:39:58.184164</dc:date>
    <dc:format>image/svg+xml</dc:format>
    <dc:creator>
     <cc:Agent>
      <dc:title>Matplotlib v3.5.0, https://matplotlib.org/</dc:title>
     </cc:Agent>
    </dc:creator>
   </cc:Work>
  </rdf:RDF>
 </metadata>
 <defs>
  <style type="text/css">*{stroke-linejoin: round; stroke-linecap: butt}</style>
 </defs>
 <g id="figure_1">
  <g id="patch_1">
   <path d="M 0 403.2 
L 226.08 403.2 
L 226.08 0 
L 0 0 
L 0 403.2 
z
" style="fill: none"/>
  </g>
  <g id="axes_1">
   <g id="patch_2">
    <path d="M 34.379928 97.457795 
L 152.179176 97.457795 
L 152.179176 3.296677 
L 34.379928 3.296677 
z
" style="fill: #ffffff"/>
   </g>
   <g id="line2d_1">
    <path d="M 57.939777 18.725685 
L 116.839401 78.707438 
" clip-path="url(#pa6e33e90d5)" style="fill: none; stroke: #de8f05; stroke-width: 2.7; stroke-linecap: square"/>
   </g>
   <g id="line2d_2">
    <path d="M 57.939777 25.966673 
L 57.939777 10.784521 
" clip-path="url(#pa6e33e90d5)" style="fill: none; stroke: #de8f05; stroke-linecap: square"/>
   </g>
   <g id="line2d_3">
    <path d="M 116.839401 93.177744 
L 116.839401 64.237132 
" clip-path="url(#pa6e33e90d5)" style="fill: none; stroke: #de8f05; stroke-linecap: square"/>
   </g>
   <g id="PathCollection_1">
    <defs>
     <path id="mfa43bc5525" d="M 0 3.383948 
C 0.897434 3.383948 1.758231 3.027394 2.392813 2.392813 
C 3.027394 1.758231 3.383948 0.897434 3.383948 0 
C 3.383948 -0.897434 3.027394 -1.758231 2.392813 -2.392813 
C 1.758231 -3.027394 0.897434 -3.383948 0 -3.383948 
C -0.897434 -3.383948 -1.758231 -3.027394 -2.392813 -2.392813 
C -3.027394 -1.758231 -3.383948 -0.897434 -3.383948 0 
C -3.383948 0.897434 -3.027394 1.758231 -2.392813 2.392813 
C -1.758231 3.027394 -0.897434 3.383948 0 3.383948 
z
" style="stroke: #de8f05; stroke-width: 2.025"/>
    </defs>
    <g clip-path="url(#pa6e33e90d5)">
     <use xlink:href="#mfa43bc5525" x="57.939777" y="18.725685" style="fill: #de8f05; stroke: #de8f05; stroke-width: 2.025"/>
     <use xlink:href="#mfa43bc5525" x="116.839401" y="78.707438" style="fill: #de8f05; stroke: #de8f05; stroke-width: 2.025"/>
    </g>
   </g>
   <g id="matplotlib.axis_1">
    <g id="xtick_1">
     <g id="line2d_4">
      <defs>
       <path id="m8af17b9150" d="M 0 0 
L 0 3.5 
" style="stroke: #000000; stroke-width: 0.8"/>
      </defs>
      <g>
       <use xlink:href="#m8af17b9150" x="63.82974" y="97.457795" style="stroke: #000000; stroke-width: 0.8"/>
      </g>
     </g>
     <g id="text_1">
      <text style="font: 10px 'sans-serif'; text-anchor: middle" x="63.82974" y="111.631232" transform="rotate(-0, 63.82974, 111.631232)">Pre</text>
     </g>
    </g>
    <g id="xtick_2">
     <g id="line2d_5">
      <g>
       <use xlink:href="#m8af17b9150" x="122.729364" y="97.457795" style="stroke: #000000; stroke-width: 0.8"/>
      </g>
     </g>
     <g id="text_2">
      <text style="font: 10px 'sans-serif'; text-anchor: middle" x="122.729364" y="111.631232" transform="rotate(-0, 122.729364, 111.631232)">Post</text>
     </g>
    </g>
   </g>
   <g id="matplotlib.axis_2">
    <g id="ytick_1">
     <g id="line2d_6">
      <defs>
       <path id="mec5295d0b2" d="M 0 0 
L -3.5 0 
" style="stroke: #000000; stroke-width: 0.8"/>
      </defs>
      <g>
       <use xlink:href="#mec5295d0b2" x="34.379928" y="83.60867" style="stroke: #000000; stroke-width: 0.8"/>
      </g>
     </g>
     <g id="text_3">
      <text style="font: 10px 'sans-serif'; text-anchor: end" x="27.379928" y="87.195389" transform="rotate(-0, 27.379928, 87.195389)">10</text>
     </g>
    </g>
    <g id="ytick_2">
     <g id="line2d_7">
      <g>
       <use xlink:href="#mec5295d0b2" x="34.379928" y="57.935547" style="stroke: #000000; stroke-width: 0.8"/>
      </g>
     </g>
     <g id="text_4">
      <text style="font: 10px 'sans-serif'; text-anchor: end" x="27.379928" y="61.522266" transform="rotate(-0, 27.379928, 61.522266)">20</text>
     </g>
    </g>
    <g id="ytick_3">
     <g id="line2d_8">
      <g>
       <use xlink:href="#mec5295d0b2" x="34.379928" y="32.262423" style="stroke: #000000; stroke-width: 0.8"/>
      </g>
     </g>
     <g id="text_5">
      <text style="font: 10px 'sans-serif'; text-anchor: end" x="27.379928" y="35.849142" transform="rotate(-0, 27.379928, 35.849142)">30</text>
     </g>
    </g>
    <g id="ytick_4">
     <g id="line2d_9">
      <g>
       <use xlink:href="#mec5295d0b2" x="34.379928" y="6.5893" style="stroke: #000000; stroke-width: 0.8"/>
      </g>
     </g>
     <g id="text_6">
      <text style="font: 10px 'sans-serif'; text-anchor: end" x="27.379928" y="10.176018" transform="rotate(-0, 27.379928, 10.176018)">40</text>
     </g>
    </g>
    <g id="text_7">
     <text style="font: 10px 'sans-serif'; text-anchor: middle" x="10.173677" y="50.377236" transform="rotate(-90, 10.173677, 50.377236)">MADRS score</text>
    </g>
   </g>
   <g id="line2d_10">
    <path d="M 63.82974 13.328494 
L 122.729364 56.250748 
" clip-path="url(#pa6e33e90d5)" style="fill: none; stroke: #d55e00; stroke-width: 2.7; stroke-linecap: square"/>
   </g>
   <g id="line2d_11">
    <path d="M 63.82974 18.142205 
L 63.82974 8.833692 
" clip-path="url(#pa6e33e90d5)" style="fill: none; stroke: #d55e00; stroke-linecap: square"/>
   </g>
   <g id="line2d_12">
    <path d="M 122.729364 66.048655 
L 122.729364 45.815024 
" clip-path="url(#pa6e33e90d5)" style="fill: none; stroke: #d55e00; stroke-linecap: square"/>
   </g>
   <g id="PathCollection_2">
    <defs>
     <path id="m293e885f82" d="M 0 3.383948 
C 0.897434 3.383948 1.758231 3.027394 2.392813 2.392813 
C 3.027394 1.758231 3.383948 0.897434 3.383948 0 
C 3.383948 -0.897434 3.027394 -1.758231 2.392813 -2.392813 
C 1.758231 -3.027394 0.897434 -3.383948 0 -3.383948 
C -0.897434 -3.383948 -1.758231 -3.027394 -2.392813 -2.392813 
C -3.027394 -1.758231 -3.383948 -0.897434 -3.383948 0 
C -3.383948 0.897434 -3.027394 1.758231 -2.392813 2.392813 
C -1.758231 3.027394 -0.897434 3.383948 0 3.383948 
z
" style="stroke: #d55e00; stroke-width: 2.025"/>
    </defs>
    <g clip-path="url(#pa6e33e90d5)">
     <use xlink:href="#m293e885f82" x="63.82974" y="13.328494" style="fill: #d55e00; stroke: #d55e00; stroke-width: 2.025"/>
     <use xlink:href="#m293e885f82" x="122.729364" y="56.250748" style="fill: #d55e00; stroke: #d55e00; stroke-width: 2.025"/>
    </g>
   </g>
   <g id="patch_3">
    <path d="M 34.379928 97.457795 
L 34.379928 3.296677 
" style="fill: none; stroke: #000000; stroke-width: 0.8; stroke-linejoin: miter; stroke-linecap: square"/>
   </g>
   <g id="patch_4">
    <path d="M 34.379928 97.457795 
L 152.179176 97.457795 
" style="fill: none; stroke: #000000; stroke-width: 0.8; stroke-linejoin: miter; stroke-linecap: square"/>
   </g>
   <g id="line2d_13">
    <path d="M 69.719702 13.303809 
L 128.619326 35.619678 
" clip-path="url(#pa6e33e90d5)" style="fill: none; stroke: #000000; stroke-width: 2.7; stroke-linecap: square"/>
   </g>
   <g id="line2d_14">
    <path d="M 69.719702 18.438433 
L 69.719702 7.576727 
" clip-path="url(#pa6e33e90d5)" style="fill: none; stroke: #000000; stroke-linecap: square"/>
   </g>
   <g id="line2d_15">
    <path d="M 128.619326 48.066206 
L 128.619326 23.770544 
" clip-path="url(#pa6e33e90d5)" style="fill: none; stroke: #000000; stroke-linecap: square"/>
   </g>
   <g id="PathCollection_3">
    <defs>
     <path id="mb018ec888e" d="M 0 3.383948 
C 0.897434 3.383948 1.758231 3.027394 2.392813 2.392813 
C 3.027394 1.758231 3.383948 0.897434 3.383948 0 
C 3.383948 -0.897434 3.027394 -1.758231 2.392813 -2.392813 
C 1.758231 -3.027394 0.897434 -3.383948 0 -3.383948 
C -0.897434 -3.383948 -1.758231 -3.027394 -2.392813 -2.392813 
C -3.027394 -1.758231 -3.383948 -0.897434 -3.383948 0 
C -3.383948 0.897434 -3.027394 1.758231 -2.392813 2.392813 
C -1.758231 3.027394 -0.897434 3.383948 0 3.383948 
z
" style="stroke: #000000; stroke-width: 2.025"/>
    </defs>
    <g clip-path="url(#pa6e33e90d5)">
     <use xlink:href="#mb018ec888e" x="69.719702" y="13.303809" style="stroke: #000000; stroke-width: 2.025"/>
     <use xlink:href="#mb018ec888e" x="128.619326" y="35.619678" style="stroke: #000000; stroke-width: 2.025"/>
    </g>
   </g>
  </g>
  <g id="axes_2">
   <g id="patch_5">
    <path d="M 170.180616 97.457795 
L 223.07976 97.457795 
L 223.07976 3.296677 
L 170.180616 3.296677 
z
" style="fill: #ffffff"/>
   </g>
   <g id="patch_6">
    <path d="M 171.943921 97.457795 
L 186.050359 97.457795 
L 186.050359 7.780539 
L 171.943921 7.780539 
z
" clip-path="url(#pd5331fdf05)" style="fill: #ffffff"/>
   </g>
   <g id="patch_7">
    <path d="M 189.576969 97.457795 
L 203.683407 97.457795 
L 203.683407 7.780539 
L 189.576969 7.780539 
z
" clip-path="url(#pd5331fdf05)" style="fill: #ffffff"/>
   </g>
   <g id="patch_8">
    <path d="M 207.210017 97.457795 
L 221.316455 97.457795 
L 221.316455 7.780539 
L 207.210017 7.780539 
z
" clip-path="url(#pd5331fdf05)" style="fill: #ffffff"/>
   </g>
   <g id="patch_9">
    <path d="M 171.943921 97.457795 
L 186.050359 97.457795 
L 186.050359 40.39045 
L 171.943921 40.39045 
z
" clip-path="url(#pd5331fdf05)" style="fill: #176d9c"/>
   </g>
   <g id="patch_10">
    <path d="M 189.576969 97.457795 
L 203.683407 97.457795 
L 203.683407 61.02641 
L 189.576969 61.02641 
z
" clip-path="url(#pd5331fdf05)" style="fill: #176d9c"/>
   </g>
   <g id="patch_11">
    <path d="M 207.210017 97.457795 
L 221.316455 97.457795 
L 221.316455 76.763043 
L 207.210017 76.763043 
z
" clip-path="url(#pd5331fdf05)" style="fill: #176d9c"/>
   </g>
   <g id="patch_12">
    <path d="M 171.943921 97.457795 
L 186.050359 97.457795 
L 186.050359 48.542928 
L 171.943921 48.542928 
z
" clip-path="url(#pd5331fdf05)" style="fill: #158b6a"/>
   </g>
   <g id="patch_13">
    <path d="M 189.576969 97.457795 
L 203.683407 97.457795 
L 203.683407 77.840895 
L 189.576969 77.840895 
z
" clip-path="url(#pd5331fdf05)" style="fill: #158b6a"/>
   </g>
   <g id="patch_14">
    <path d="M 207.210017 97.457795 
L 221.316455 97.457795 
L 221.316455 97.457795 
L 207.210017 97.457795 
z
" clip-path="url(#pd5331fdf05)" style="fill: #158b6a"/>
   </g>
   <g id="matplotlib.axis_3">
    <g id="xtick_3">
     <g id="line2d_16">
      <g>
       <use xlink:href="#m8af17b9150" x="178.99714" y="97.457795" style="stroke: #000000; stroke-width: 0.8"/>
      </g>
     </g>
     <g id="text_8">
      <text style="fill: #de8f05; font: 700 10px 'sans-serif'; text-anchor: middle" x="178.99714" y="111.631232" transform="rotate(-0, 178.99714, 111.631232)">T1</text>
     </g>
    </g>
    <g id="xtick_4">
     <g id="line2d_17">
      <g>
       <use xlink:href="#m8af17b9150" x="196.630188" y="97.457795" style="stroke: #000000; stroke-width: 0.8"/>
      </g>
     </g>
     <g id="text_9">
      <text style="fill: #d55e00; font: 700 10px 'sans-serif'; text-anchor: middle" x="196.630188" y="111.631232" transform="rotate(-0, 196.630188, 111.631232)">T2</text>
     </g>
    </g>
    <g id="xtick_5">
     <g id="line2d_18">
      <g>
       <use xlink:href="#m8af17b9150" x="214.263236" y="97.457795" style="stroke: #000000; stroke-width: 0.8"/>
      </g>
     </g>
     <g id="text_10">
      <text style="font: 700 10px 'sans-serif'; text-anchor: middle" x="214.263236" y="111.631232" transform="rotate(-0, 214.263236, 111.631232)">T3</text>
     </g>
    </g>
   </g>
   <g id="matplotlib.axis_4"/>
   <g id="line2d_19">
    <path clip-path="url(#pd5331fdf05)" style="fill: none; stroke: #424242; stroke-width: 2.7; stroke-linecap: square"/>
   </g>
   <g id="line2d_20">
    <path clip-path="url(#pd5331fdf05)" style="fill: none; stroke: #424242; stroke-width: 2.7; stroke-linecap: square"/>
   </g>
   <g id="line2d_21">
    <path clip-path="url(#pd5331fdf05)" style="fill: none; stroke: #424242; stroke-width: 2.7; stroke-linecap: square"/>
   </g>
   <g id="line2d_22">
    <path clip-path="url(#pd5331fdf05)" style="fill: none; stroke: #424242; stroke-width: 2.7; stroke-linecap: square"/>
   </g>
   <g id="line2d_23">
    <path clip-path="url(#pd5331fdf05)" style="fill: none; stroke: #424242; stroke-width: 2.7; stroke-linecap: square"/>
   </g>
   <g id="line2d_24">
    <path clip-path="url(#pd5331fdf05)" style="fill: none; stroke: #424242; stroke-width: 2.7; stroke-linecap: square"/>
   </g>
   <g id="line2d_25">
    <path clip-path="url(#pd5331fdf05)" style="fill: none; stroke: #424242; stroke-width: 2.7; stroke-linecap: square"/>
   </g>
   <g id="line2d_26">
    <path clip-path="url(#pd5331fdf05)" style="fill: none; stroke: #424242; stroke-width: 2.7; stroke-linecap: square"/>
   </g>
   <g id="line2d_27">
    <path clip-path="url(#pd5331fdf05)" style="fill: none; stroke: #424242; stroke-width: 2.7; stroke-linecap: square"/>
   </g>
   <g id="patch_15">
    <path d="M 170.180616 97.457795 
L 223.07976 97.457795 
" style="fill: none; stroke: #000000; stroke-width: 0.8; stroke-linejoin: miter; stroke-linecap: square"/>
   </g>
   <g id="text_11">
    <path d="M 175.10464 73.685908 
Q 175.18339 74.363721 175.733234 74.622471 
Q 176.014484 74.754658 176.382921 74.754658 
Q 177.086046 74.754658 177.423546 74.306064 
Q 177.762452 73.857471 177.762452 73.313252 
Q 177.762452 72.653721 177.360265 72.293721 
Q 176.958077 71.932314 176.395577 71.932314 
Q 175.987765 71.932314 175.695265 72.091221 
Q 175.402765 72.248721 175.196046 72.529971 
L 174.511202 72.490596 
L 174.989327 69.102939 
L 178.258859 69.102939 
L 178.258859 69.867939 
L 175.582765 69.867939 
L 175.315577 71.615908 
Q 175.534952 71.449971 175.733234 71.365596 
Q 176.084796 71.220752 176.546046 71.220752 
Q 177.41089 71.220752 178.012765 71.779033 
Q 178.616046 72.337314 178.616046 73.193721 
Q 178.616046 74.086689 178.06339 74.768721 
Q 177.51214 75.449346 176.304171 75.449346 
Q 175.534952 75.449346 174.942921 75.016221 
Q 174.352296 74.583096 174.281984 73.685908 
L 175.10464 73.685908 
z
M 180.110011 73.685908 
Q 180.188761 74.363721 180.738605 74.622471 
Q 181.019855 74.754658 181.388292 74.754658 
Q 182.091417 74.754658 182.428917 74.306064 
Q 182.767823 73.857471 182.767823 73.313252 
Q 182.767823 72.653721 182.365636 72.293721 
Q 181.963448 71.932314 181.400948 71.932314 
Q 180.993136 71.932314 180.700636 72.091221 
Q 180.408136 72.248721 180.201417 72.529971 
L 179.516573 72.490596 
L 179.994698 69.102939 
L 183.26423 69.102939 
L 183.26423 69.867939 
L 180.588136 69.867939 
L 180.320948 71.615908 
Q 180.540323 71.449971 180.738605 71.365596 
Q 181.090167 71.220752 181.551417 71.220752 
Q 182.416261 71.220752 183.018136 71.779033 
Q 183.621417 72.337314 183.621417 73.193721 
Q 183.621417 74.086689 183.068761 74.768721 
Q 182.517511 75.449346 181.309542 75.449346 
Q 180.540323 75.449346 179.948292 75.016221 
Q 179.357667 74.583096 179.287355 73.685908 
L 180.110011 73.685908 
z
" style="fill: #ffffff; stroke: #000000; stroke-width: 2"/>
    <path d="M 175.10464 73.685908 
Q 175.18339 74.363721 175.733234 74.622471 
Q 176.014484 74.754658 176.382921 74.754658 
Q 177.086046 74.754658 177.423546 74.306064 
Q 177.762452 73.857471 177.762452 73.313252 
Q 177.762452 72.653721 177.360265 72.293721 
Q 176.958077 71.932314 176.395577 71.932314 
Q 175.987765 71.932314 175.695265 72.091221 
Q 175.402765 72.248721 175.196046 72.529971 
L 174.511202 72.490596 
L 174.989327 69.102939 
L 178.258859 69.102939 
L 178.258859 69.867939 
L 175.582765 69.867939 
L 175.315577 71.615908 
Q 175.534952 71.449971 175.733234 71.365596 
Q 176.084796 71.220752 176.546046 71.220752 
Q 177.41089 71.220752 178.012765 71.779033 
Q 178.616046 72.337314 178.616046 73.193721 
Q 178.616046 74.086689 178.06339 74.768721 
Q 177.51214 75.449346 176.304171 75.449346 
Q 175.534952 75.449346 174.942921 75.016221 
Q 174.352296 74.583096 174.281984 73.685908 
L 175.10464 73.685908 
z
M 180.110011 73.685908 
Q 180.188761 74.363721 180.738605 74.622471 
Q 181.019855 74.754658 181.388292 74.754658 
Q 182.091417 74.754658 182.428917 74.306064 
Q 182.767823 73.857471 182.767823 73.313252 
Q 182.767823 72.653721 182.365636 72.293721 
Q 181.963448 71.932314 181.400948 71.932314 
Q 180.993136 71.932314 180.700636 72.091221 
Q 180.408136 72.248721 180.201417 72.529971 
L 179.516573 72.490596 
L 179.994698 69.102939 
L 183.26423 69.102939 
L 183.26423 69.867939 
L 180.588136 69.867939 
L 180.320948 71.615908 
Q 180.540323 71.449971 180.738605 71.365596 
Q 181.090167 71.220752 181.551417 71.220752 
Q 182.416261 71.220752 183.018136 71.779033 
Q 183.621417 72.337314 183.621417 73.193721 
Q 183.621417 74.086689 183.068761 74.768721 
Q 182.517511 75.449346 181.309542 75.449346 
Q 180.540323 75.449346 179.948292 75.016221 
Q 179.357667 74.583096 179.287355 73.685908 
L 180.110011 73.685908 
z
" style="fill: #ffffff"/>
   </g>
   <g id="text_12">
    <path d="M 177.69003 45.236611 
Q 177.725187 45.890517 178.194874 46.14083 
Q 178.436749 46.273017 178.740499 46.273017 
Q 179.307218 46.273017 179.706593 45.800517 
Q 180.107374 45.328017 180.274718 43.882392 
Q 180.010343 44.300049 179.620812 44.470205 
Q 179.232687 44.638955 178.784093 44.638955 
Q 177.874249 44.638955 177.344093 44.072236 
Q 176.815343 43.504111 176.815343 42.612549 
Q 176.815343 41.756142 177.338468 41.106455 
Q 177.861593 40.455361 178.881124 40.455361 
Q 180.256437 40.455361 180.779562 41.694267 
Q 181.069249 42.374892 181.069249 43.398642 
Q 181.069249 44.55458 180.721905 45.447549 
Q 180.146749 46.932549 178.771437 46.932549 
Q 177.848937 46.932549 177.369405 46.448799 
Q 176.889874 45.965049 176.889874 45.236611 
L 177.69003 45.236611 
z
M 178.889562 43.944267 
Q 179.360655 43.944267 179.74878 43.634892 
Q 180.138312 43.324111 180.138312 42.550674 
Q 180.138312 41.857392 179.788155 41.51708 
Q 179.439405 41.175361 178.897999 41.175361 
Q 178.318624 41.175361 177.978312 41.564892 
Q 177.637999 41.953017 177.637999 42.604111 
Q 177.637999 43.218642 177.936124 43.581455 
Q 178.235655 43.944267 178.889562 43.944267 
z
" style="fill: #ffffff; stroke: #000000; stroke-width: 2"/>
    <path d="M 177.69003 45.236611 
Q 177.725187 45.890517 178.194874 46.14083 
Q 178.436749 46.273017 178.740499 46.273017 
Q 179.307218 46.273017 179.706593 45.800517 
Q 180.107374 45.328017 180.274718 43.882392 
Q 180.010343 44.300049 179.620812 44.470205 
Q 179.232687 44.638955 178.784093 44.638955 
Q 177.874249 44.638955 177.344093 44.072236 
Q 176.815343 43.504111 176.815343 42.612549 
Q 176.815343 41.756142 177.338468 41.106455 
Q 177.861593 40.455361 178.881124 40.455361 
Q 180.256437 40.455361 180.779562 41.694267 
Q 181.069249 42.374892 181.069249 43.398642 
Q 181.069249 44.55458 180.721905 45.447549 
Q 180.146749 46.932549 178.771437 46.932549 
Q 177.848937 46.932549 177.369405 46.448799 
Q 176.889874 45.965049 176.889874 45.236611 
L 177.69003 45.236611 
z
M 178.889562 43.944267 
Q 179.360655 43.944267 179.74878 43.634892 
Q 180.138312 43.324111 180.138312 42.550674 
Q 180.138312 41.857392 179.788155 41.51708 
Q 179.439405 41.175361 178.897999 41.175361 
Q 178.318624 41.175361 177.978312 41.564892 
Q 177.637999 41.953017 177.637999 42.604111 
Q 177.637999 43.218642 177.936124 43.581455 
Q 178.235655 43.944267 178.889562 43.944267 
z
" style="fill: #ffffff"/>
   </g>
   <g id="text_13">
    <path d="M 191.906594 89.939423 
Q 191.950188 89.12661 192.242688 88.524735 
Q 192.535188 87.92286 193.383157 87.430673 
L 194.226907 86.942704 
Q 194.793625 86.612235 195.022844 86.380204 
Q 195.382844 86.014579 195.382844 85.544892 
Q 195.382844 84.995048 195.052375 84.673017 
Q 194.723313 84.349579 194.174875 84.349579 
Q 193.360657 84.349579 193.049875 84.96411 
Q 192.882532 85.294579 192.86425 85.878173 
L 192.059875 85.878173 
Q 192.073938 85.056923 192.363625 84.538017 
Q 192.878313 83.623954 194.179094 83.623954 
Q 195.259094 83.623954 195.758313 84.208954 
Q 196.257532 84.793954 196.257532 85.509735 
Q 196.257532 86.264892 195.725969 86.802079 
Q 195.418 87.114267 194.622063 87.557235 
L 194.020188 87.891923 
Q 193.589875 88.128173 193.343782 88.344735 
Q 192.903625 88.725829 192.789719 89.192704 
L 196.226594 89.192704 
L 196.226594 89.939423 
L 191.906594 89.939423 
z
M 196.911965 89.939423 
Q 196.955559 89.12661 197.248059 88.524735 
Q 197.540559 87.92286 198.388528 87.430673 
L 199.232278 86.942704 
Q 199.798997 86.612235 200.028215 86.380204 
Q 200.388215 86.014579 200.388215 85.544892 
Q 200.388215 84.995048 200.057747 84.673017 
Q 199.728684 84.349579 199.180247 84.349579 
Q 198.366028 84.349579 198.055247 84.96411 
Q 197.887903 85.294579 197.869622 85.878173 
L 197.065247 85.878173 
Q 197.079309 85.056923 197.368997 84.538017 
Q 197.883684 83.623954 199.184465 83.623954 
Q 200.264465 83.623954 200.763684 84.208954 
Q 201.262903 84.793954 201.262903 85.509735 
Q 201.262903 86.264892 200.73134 86.802079 
Q 200.423372 87.114267 199.627434 87.557235 
L 199.025559 87.891923 
Q 198.595247 88.128173 198.349153 88.344735 
Q 197.908997 88.725829 197.79509 89.192704 
L 201.231965 89.192704 
L 201.231965 89.939423 
L 196.911965 89.939423 
z
" style="fill: #ffffff; stroke: #000000; stroke-width: 2"/>
    <path d="M 191.906594 89.939423 
Q 191.950188 89.12661 192.242688 88.524735 
Q 192.535188 87.92286 193.383157 87.430673 
L 194.226907 86.942704 
Q 194.793625 86.612235 195.022844 86.380204 
Q 195.382844 86.014579 195.382844 85.544892 
Q 195.382844 84.995048 195.052375 84.673017 
Q 194.723313 84.349579 194.174875 84.349579 
Q 193.360657 84.349579 193.049875 84.96411 
Q 192.882532 85.294579 192.86425 85.878173 
L 192.059875 85.878173 
Q 192.073938 85.056923 192.363625 84.538017 
Q 192.878313 83.623954 194.179094 83.623954 
Q 195.259094 83.623954 195.758313 84.208954 
Q 196.257532 84.793954 196.257532 85.509735 
Q 196.257532 86.264892 195.725969 86.802079 
Q 195.418 87.114267 194.622063 87.557235 
L 194.020188 87.891923 
Q 193.589875 88.128173 193.343782 88.344735 
Q 192.903625 88.725829 192.789719 89.192704 
L 196.226594 89.192704 
L 196.226594 89.939423 
L 191.906594 89.939423 
z
M 196.911965 89.939423 
Q 196.955559 89.12661 197.248059 88.524735 
Q 197.540559 87.92286 198.388528 87.430673 
L 199.232278 86.942704 
Q 199.798997 86.612235 200.028215 86.380204 
Q 200.388215 86.014579 200.388215 85.544892 
Q 200.388215 84.995048 200.057747 84.673017 
Q 199.728684 84.349579 199.180247 84.349579 
Q 198.366028 84.349579 198.055247 84.96411 
Q 197.887903 85.294579 197.869622 85.878173 
L 197.065247 85.878173 
Q 197.079309 85.056923 197.368997 84.538017 
Q 197.883684 83.623954 199.184465 83.623954 
Q 200.264465 83.623954 200.763684 84.208954 
Q 201.262903 84.793954 201.262903 85.509735 
Q 201.262903 86.264892 200.73134 86.802079 
Q 200.423372 87.114267 199.627434 87.557235 
L 199.025559 87.891923 
Q 198.595247 88.128173 198.349153 88.344735 
Q 197.908997 88.725829 197.79509 89.192704 
L 201.231965 89.192704 
L 201.231965 89.939423 
L 196.911965 89.939423 
z
" style="fill: #ffffff"/>
   </g>
   <g id="text_14">
    <path d="M 192.487375 67.267324 
L 192.487375 66.66123 
Q 193.343782 66.578262 193.681282 66.382793 
Q 194.020188 66.185918 194.187532 65.45748 
L 194.811907 65.45748 
L 194.811907 71.72373 
L 193.968157 71.72373 
L 193.968157 67.267324 
L 192.487375 67.267324 
z
M 197.826028 70.203574 
Q 197.861184 70.85748 198.330872 71.107793 
Q 198.572747 71.23998 198.876497 71.23998 
Q 199.443215 71.23998 199.84259 70.76748 
Q 200.243372 70.29498 200.410715 68.849355 
Q 200.14634 69.267012 199.756809 69.437168 
Q 199.368684 69.605918 198.92009 69.605918 
Q 198.010247 69.605918 197.48009 69.039199 
Q 196.95134 68.471074 196.95134 67.579512 
Q 196.95134 66.723105 197.474465 66.073418 
Q 197.99759 65.422324 199.017122 65.422324 
Q 200.392434 65.422324 200.915559 66.66123 
Q 201.205247 67.341855 201.205247 68.365605 
Q 201.205247 69.521543 200.857903 70.414512 
Q 200.282747 71.899512 198.907434 71.899512 
Q 197.984934 71.899512 197.505403 71.415762 
Q 197.025872 70.932012 197.025872 70.203574 
L 197.826028 70.203574 
z
M 199.025559 68.91123 
Q 199.496653 68.91123 199.884778 68.601855 
Q 200.274309 68.291074 200.274309 67.517637 
Q 200.274309 66.824355 199.924153 66.484043 
Q 199.575403 66.142324 199.033997 66.142324 
Q 198.454622 66.142324 198.114309 66.531855 
Q 197.773997 66.91998 197.773997 67.571074 
Q 197.773997 68.185605 198.072122 68.548418 
Q 198.371653 68.91123 199.025559 68.91123 
z
" style="fill: #ffffff; stroke: #000000; stroke-width: 2"/>
    <path d="M 192.487375 67.267324 
L 192.487375 66.66123 
Q 193.343782 66.578262 193.681282 66.382793 
Q 194.020188 66.185918 194.187532 65.45748 
L 194.811907 65.45748 
L 194.811907 71.72373 
L 193.968157 71.72373 
L 193.968157 67.267324 
L 192.487375 67.267324 
z
M 197.826028 70.203574 
Q 197.861184 70.85748 198.330872 71.107793 
Q 198.572747 71.23998 198.876497 71.23998 
Q 199.443215 71.23998 199.84259 70.76748 
Q 200.243372 70.29498 200.410715 68.849355 
Q 200.14634 69.267012 199.756809 69.437168 
Q 199.368684 69.605918 198.92009 69.605918 
Q 198.010247 69.605918 197.48009 69.039199 
Q 196.95134 68.471074 196.95134 67.579512 
Q 196.95134 66.723105 197.474465 66.073418 
Q 197.99759 65.422324 199.017122 65.422324 
Q 200.392434 65.422324 200.915559 66.66123 
Q 201.205247 67.341855 201.205247 68.365605 
Q 201.205247 69.521543 200.857903 70.414512 
Q 200.282747 71.899512 198.907434 71.899512 
Q 197.984934 71.899512 197.505403 71.415762 
Q 197.025872 70.932012 197.025872 70.203574 
L 197.826028 70.203574 
z
M 199.025559 68.91123 
Q 199.496653 68.91123 199.884778 68.601855 
Q 200.274309 68.291074 200.274309 67.517637 
Q 200.274309 66.824355 199.924153 66.484043 
Q 199.575403 66.142324 199.033997 66.142324 
Q 198.454622 66.142324 198.114309 66.531855 
Q 197.773997 66.91998 197.773997 67.571074 
Q 197.773997 68.185605 198.072122 68.548418 
Q 198.371653 68.91123 199.025559 68.91123 
z
" style="fill: #ffffff"/>
   </g>
   <g id="text_15">
    <path d="M 209.539642 89.400497 
Q 209.583236 88.587685 209.875736 87.98581 
Q 210.168236 87.383935 211.016205 86.891747 
L 211.859955 86.403778 
Q 212.426673 86.07331 212.655892 85.841278 
Q 213.015892 85.475653 213.015892 85.005966 
Q 213.015892 84.456122 212.685423 84.134091 
Q 212.356361 83.810653 211.807923 83.810653 
Q 210.993705 83.810653 210.682923 84.425185 
Q 210.51558 84.755653 210.497298 85.339247 
L 209.692923 85.339247 
Q 209.706986 84.517997 209.996673 83.999091 
Q 210.511361 83.085028 211.812142 83.085028 
Q 212.892142 83.085028 213.391361 83.670028 
Q 213.89058 84.255028 213.89058 84.97081 
Q 213.89058 85.725966 213.359017 86.263153 
Q 213.051048 86.575341 212.255111 87.01831 
L 211.653236 87.352997 
Q 211.222923 87.589247 210.97683 87.80581 
Q 210.536673 88.186903 210.422767 88.653778 
L 213.859642 88.653778 
L 213.859642 89.400497 
L 209.539642 89.400497 
z
M 216.602357 89.57206 
Q 215.485795 89.57206 214.982357 88.958935 
Q 214.47892 88.34581 214.47892 87.466903 
L 215.305795 87.466903 
Q 215.357826 88.077216 215.533607 88.354247 
Q 215.841576 88.850653 216.645951 88.850653 
Q 217.270326 88.850653 217.647201 88.517372 
Q 218.025482 88.182685 218.025482 87.655341 
Q 218.025482 87.005653 217.627513 86.746903 
Q 217.229545 86.486747 216.522201 86.486747 
Q 216.443451 86.486747 216.361888 86.48956 
Q 216.280326 86.490966 216.197357 86.495185 
L 216.197357 85.796278 
Q 216.321107 85.810341 216.404076 85.81456 
Q 216.487045 85.818778 216.584076 85.818778 
Q 217.028451 85.818778 217.31392 85.678153 
Q 217.814545 85.43206 217.814545 84.799247 
Q 217.814545 84.32956 217.479857 84.075028 
Q 217.146576 83.819091 216.702201 83.819091 
Q 215.911888 83.819091 215.608138 84.346435 
Q 215.442201 84.636122 215.419701 85.17331 
L 214.637826 85.17331 
Q 214.637826 84.470185 214.919076 83.977997 
Q 215.40142 83.099091 216.619232 83.099091 
Q 217.581107 83.099091 218.108451 83.527997 
Q 218.635795 83.955497 218.635795 84.76831 
Q 218.635795 85.349091 218.325013 85.709091 
Q 218.130951 85.932685 217.822982 86.060653 
Q 218.319388 86.19706 218.597826 86.586591 
Q 218.87767 86.974716 218.87767 87.537216 
Q 218.87767 88.438622 218.284232 89.005341 
Q 217.692201 89.57206 216.602357 89.57206 
z
" style="fill: #ffffff; stroke: #000000; stroke-width: 2"/>
    <path d="M 209.539642 89.400497 
Q 209.583236 88.587685 209.875736 87.98581 
Q 210.168236 87.383935 211.016205 86.891747 
L 211.859955 86.403778 
Q 212.426673 86.07331 212.655892 85.841278 
Q 213.015892 85.475653 213.015892 85.005966 
Q 213.015892 84.456122 212.685423 84.134091 
Q 212.356361 83.810653 211.807923 83.810653 
Q 210.993705 83.810653 210.682923 84.425185 
Q 210.51558 84.755653 210.497298 85.339247 
L 209.692923 85.339247 
Q 209.706986 84.517997 209.996673 83.999091 
Q 210.511361 83.085028 211.812142 83.085028 
Q 212.892142 83.085028 213.391361 83.670028 
Q 213.89058 84.255028 213.89058 84.97081 
Q 213.89058 85.725966 213.359017 86.263153 
Q 213.051048 86.575341 212.255111 87.01831 
L 211.653236 87.352997 
Q 211.222923 87.589247 210.97683 87.80581 
Q 210.536673 88.186903 210.422767 88.653778 
L 213.859642 88.653778 
L 213.859642 89.400497 
L 209.539642 89.400497 
z
M 216.602357 89.57206 
Q 215.485795 89.57206 214.982357 88.958935 
Q 214.47892 88.34581 214.47892 87.466903 
L 215.305795 87.466903 
Q 215.357826 88.077216 215.533607 88.354247 
Q 215.841576 88.850653 216.645951 88.850653 
Q 217.270326 88.850653 217.647201 88.517372 
Q 218.025482 88.182685 218.025482 87.655341 
Q 218.025482 87.005653 217.627513 86.746903 
Q 217.229545 86.486747 216.522201 86.486747 
Q 216.443451 86.486747 216.361888 86.48956 
Q 216.280326 86.490966 216.197357 86.495185 
L 216.197357 85.796278 
Q 216.321107 85.810341 216.404076 85.81456 
Q 216.487045 85.818778 216.584076 85.818778 
Q 217.028451 85.818778 217.31392 85.678153 
Q 217.814545 85.43206 217.814545 84.799247 
Q 217.814545 84.32956 217.479857 84.075028 
Q 217.146576 83.819091 216.702201 83.819091 
Q 215.911888 83.819091 215.608138 84.346435 
Q 215.442201 84.636122 215.419701 85.17331 
L 214.637826 85.17331 
Q 214.637826 84.470185 214.919076 83.977997 
Q 215.40142 83.099091 216.619232 83.099091 
Q 217.581107 83.099091 218.108451 83.527997 
Q 218.635795 83.955497 218.635795 84.76831 
Q 218.635795 85.349091 218.325013 85.709091 
Q 218.130951 85.932685 217.822982 86.060653 
Q 218.319388 86.19706 218.597826 86.586591 
Q 218.87767 86.974716 218.87767 87.537216 
Q 218.87767 88.438622 218.284232 89.005341 
Q 217.692201 89.57206 216.602357 89.57206 
z
" style="fill: #ffffff"/>
   </g>
  </g>
  <g id="axes_3">
   <g id="patch_16">
    <path d="M 34.379928 213.877205 
L 152.179176 213.877205 
L 152.179176 119.716087 
L 34.379928 119.716087 
z
" style="fill: #ffffff"/>
   </g>
   <g id="line2d_28">
    <path d="M 57.939777 157.450579 
L 116.839401 201.126645 
" clip-path="url(#p2605dea4f8)" style="fill: none; stroke: #de8f05; stroke-width: 2.7; stroke-linecap: square"/>
   </g>
   <g id="line2d_29">
    <path d="M 57.939777 170.692368 
L 57.939777 144.215407 
" clip-path="url(#p2605dea4f8)" style="fill: none; stroke: #de8f05; stroke-linecap: square"/>
   </g>
   <g id="line2d_30">
    <path d="M 116.839401 209.597154 
L 116.839401 191.597321 
" clip-path="url(#p2605dea4f8)" style="fill: none; stroke: #de8f05; stroke-linecap: square"/>
   </g>
   <g id="PathCollection_4">
    <g clip-path="url(#p2605dea4f8)">
     <use xlink:href="#mfa43bc5525" x="57.939777" y="157.450579" style="fill: #de8f05; stroke: #de8f05; stroke-width: 2.025"/>
     <use xlink:href="#mfa43bc5525" x="116.839401" y="201.126645" style="fill: #de8f05; stroke: #de8f05; stroke-width: 2.025"/>
    </g>
   </g>
   <g id="matplotlib.axis_5">
    <g id="xtick_6">
     <g id="line2d_31">
      <g>
       <use xlink:href="#m8af17b9150" x="63.82974" y="213.877205" style="stroke: #000000; stroke-width: 0.8"/>
      </g>
     </g>
     <g id="text_16">
      <text style="font: 10px 'sans-serif'; text-anchor: middle" x="63.82974" y="228.050643" transform="rotate(-0, 63.82974, 228.050643)">Pre</text>
     </g>
    </g>
    <g id="xtick_7">
     <g id="line2d_32">
      <g>
       <use xlink:href="#m8af17b9150" x="122.729364" y="213.877205" style="stroke: #000000; stroke-width: 0.8"/>
      </g>
     </g>
     <g id="text_17">
      <text style="font: 10px 'sans-serif'; text-anchor: middle" x="122.729364" y="228.050643" transform="rotate(-0, 122.729364, 228.050643)">Post</text>
     </g>
    </g>
   </g>
   <g id="matplotlib.axis_6">
    <g id="ytick_5">
     <g id="line2d_33">
      <g>
       <use xlink:href="#mec5295d0b2" x="34.379928" y="194.773762" style="stroke: #000000; stroke-width: 0.8"/>
      </g>
     </g>
     <g id="text_18">
      <text style="font: 10px 'sans-serif'; text-anchor: end" x="27.379928" y="198.360481" transform="rotate(-0, 27.379928, 198.360481)">10</text>
     </g>
    </g>
    <g id="ytick_6">
     <g id="line2d_34">
      <g>
       <use xlink:href="#mec5295d0b2" x="34.379928" y="165.656385" style="stroke: #000000; stroke-width: 0.8"/>
      </g>
     </g>
     <g id="text_19">
      <text style="font: 10px 'sans-serif'; text-anchor: end" x="27.379928" y="169.243104" transform="rotate(-0, 27.379928, 169.243104)">20</text>
     </g>
    </g>
    <g id="ytick_7">
     <g id="line2d_35">
      <g>
       <use xlink:href="#mec5295d0b2" x="34.379928" y="136.539008" style="stroke: #000000; stroke-width: 0.8"/>
      </g>
     </g>
     <g id="text_20">
      <text style="font: 10px 'sans-serif'; text-anchor: end" x="27.379928" y="140.125727" transform="rotate(-0, 27.379928, 140.125727)">30</text>
     </g>
    </g>
    <g id="text_21">
     <text style="font: 10px 'sans-serif'; text-anchor: middle" x="10.173677" y="166.796646" transform="rotate(-90, 10.173677, 166.796646)">HAMA score</text>
    </g>
   </g>
   <g id="line2d_36">
    <path d="M 63.82974 142.362483 
L 122.729364 172.389779 
" clip-path="url(#p2605dea4f8)" style="fill: none; stroke: #d55e00; stroke-width: 2.7; stroke-linecap: square"/>
   </g>
   <g id="line2d_37">
    <path d="M 63.82974 151.097697 
L 63.82974 134.441647 
" clip-path="url(#p2605dea4f8)" style="fill: none; stroke: #d55e00; stroke-linecap: square"/>
   </g>
   <g id="line2d_38">
    <path d="M 122.729364 181.579951 
L 122.729364 163.654565 
" clip-path="url(#p2605dea4f8)" style="fill: none; stroke: #d55e00; stroke-linecap: square"/>
   </g>
   <g id="PathCollection_5">
    <g clip-path="url(#p2605dea4f8)">
     <use xlink:href="#m293e885f82" x="63.82974" y="142.362483" style="fill: #d55e00; stroke: #d55e00; stroke-width: 2.025"/>
     <use xlink:href="#m293e885f82" x="122.729364" y="172.389779" style="fill: #d55e00; stroke: #d55e00; stroke-width: 2.025"/>
    </g>
   </g>
   <g id="patch_17">
    <path d="M 34.379928 213.877205 
L 34.379928 119.716087 
" style="fill: none; stroke: #000000; stroke-width: 0.8; stroke-linejoin: miter; stroke-linecap: square"/>
   </g>
   <g id="patch_18">
    <path d="M 34.379928 213.877205 
L 152.179176 213.877205 
" style="fill: none; stroke: #000000; stroke-width: 0.8; stroke-linejoin: miter; stroke-linecap: square"/>
   </g>
   <g id="line2d_39">
    <path d="M 69.719702 135.643089 
L 128.619326 151.993616 
" clip-path="url(#p2605dea4f8)" style="fill: none; stroke: #000000; stroke-width: 2.7; stroke-linecap: square"/>
   </g>
   <g id="line2d_40">
    <path d="M 69.719702 146.6237 
L 69.719702 123.996138 
" clip-path="url(#p2605dea4f8)" style="fill: none; stroke: #000000; stroke-linecap: square"/>
   </g>
   <g id="line2d_41">
    <path d="M 128.619326 163.640567 
L 128.619326 139.450746 
" clip-path="url(#p2605dea4f8)" style="fill: none; stroke: #000000; stroke-linecap: square"/>
   </g>
   <g id="PathCollection_6">
    <g clip-path="url(#p2605dea4f8)">
     <use xlink:href="#mb018ec888e" x="69.719702" y="135.643089" style="stroke: #000000; stroke-width: 2.025"/>
     <use xlink:href="#mb018ec888e" x="128.619326" y="151.993616" style="stroke: #000000; stroke-width: 2.025"/>
    </g>
   </g>
  </g>
  <g id="axes_4">
   <g id="patch_19">
    <path d="M 170.180616 213.877205 
L 223.07976 213.877205 
L 223.07976 119.716087 
L 170.180616 119.716087 
z
" style="fill: #ffffff"/>
   </g>
   <g id="patch_20">
    <path d="M 171.943921 213.877205 
L 186.050359 213.877205 
L 186.050359 124.19995 
L 171.943921 124.19995 
z
" clip-path="url(#p2ce4b84a3b)" style="fill: #ffffff"/>
   </g>
   <g id="patch_21">
    <path d="M 189.576969 213.877205 
L 203.683407 213.877205 
L 203.683407 124.19995 
L 189.576969 124.19995 
z
" clip-path="url(#p2ce4b84a3b)" style="fill: #ffffff"/>
   </g>
   <g id="patch_22">
    <path d="M 207.210017 213.877205 
L 221.316455 213.877205 
L 221.316455 124.19995 
L 207.210017 124.19995 
z
" clip-path="url(#p2ce4b84a3b)" style="fill: #ffffff"/>
   </g>
   <g id="patch_23">
    <path d="M 171.943921 213.877205 
L 186.050359 213.877205 
L 186.050359 148.657383 
L 171.943921 148.657383 
z
" clip-path="url(#p2ce4b84a3b)" style="fill: #176d9c"/>
   </g>
   <g id="patch_24">
    <path d="M 189.576969 213.877205 
L 203.683407 213.877205 
L 203.683407 188.655477 
L 189.576969 188.655477 
z
" clip-path="url(#p2ce4b84a3b)" style="fill: #176d9c"/>
   </g>
   <g id="patch_25">
    <path d="M 207.210017 213.877205 
L 221.316455 213.877205 
L 221.316455 206.978955 
L 207.210017 206.978955 
z
" clip-path="url(#p2ce4b84a3b)" style="fill: #176d9c"/>
   </g>
   <g id="patch_26">
    <path d="M 171.943921 213.877205 
L 186.050359 213.877205 
L 186.050359 164.962339 
L 171.943921 164.962339 
z
" clip-path="url(#p2ce4b84a3b)" style="fill: #158b6a"/>
   </g>
   <g id="patch_27">
    <path d="M 189.576969 213.877205 
L 203.683407 213.877205 
L 203.683407 205.469962 
L 189.576969 205.469962 
z
" clip-path="url(#p2ce4b84a3b)" style="fill: #158b6a"/>
   </g>
   <g id="patch_28">
    <path d="M 207.210017 213.877205 
L 221.316455 213.877205 
L 221.316455 213.877205 
L 207.210017 213.877205 
z
" clip-path="url(#p2ce4b84a3b)" style="fill: #158b6a"/>
   </g>
   <g id="matplotlib.axis_7">
    <g id="xtick_8">
     <g id="line2d_42">
      <g>
       <use xlink:href="#m8af17b9150" x="178.99714" y="213.877205" style="stroke: #000000; stroke-width: 0.8"/>
      </g>
     </g>
     <g id="text_22">
      <text style="fill: #de8f05; font: 700 10px 'sans-serif'; text-anchor: middle" x="178.99714" y="228.050643" transform="rotate(-0, 178.99714, 228.050643)">T1</text>
     </g>
    </g>
    <g id="xtick_9">
     <g id="line2d_43">
      <g>
       <use xlink:href="#m8af17b9150" x="196.630188" y="213.877205" style="stroke: #000000; stroke-width: 0.8"/>
      </g>
     </g>
     <g id="text_23">
      <text style="fill: #d55e00; font: 700 10px 'sans-serif'; text-anchor: middle" x="196.630188" y="228.050643" transform="rotate(-0, 196.630188, 228.050643)">T2</text>
     </g>
    </g>
    <g id="xtick_10">
     <g id="line2d_44">
      <g>
       <use xlink:href="#m8af17b9150" x="214.263236" y="213.877205" style="stroke: #000000; stroke-width: 0.8"/>
      </g>
     </g>
     <g id="text_24">
      <text style="font: 700 10px 'sans-serif'; text-anchor: middle" x="214.263236" y="228.050643" transform="rotate(-0, 214.263236, 228.050643)">T3</text>
     </g>
    </g>
   </g>
   <g id="matplotlib.axis_8"/>
   <g id="line2d_45">
    <path clip-path="url(#p2ce4b84a3b)" style="fill: none; stroke: #424242; stroke-width: 2.7; stroke-linecap: square"/>
   </g>
   <g id="line2d_46">
    <path clip-path="url(#p2ce4b84a3b)" style="fill: none; stroke: #424242; stroke-width: 2.7; stroke-linecap: square"/>
   </g>
   <g id="line2d_47">
    <path clip-path="url(#p2ce4b84a3b)" style="fill: none; stroke: #424242; stroke-width: 2.7; stroke-linecap: square"/>
   </g>
   <g id="line2d_48">
    <path clip-path="url(#p2ce4b84a3b)" style="fill: none; stroke: #424242; stroke-width: 2.7; stroke-linecap: square"/>
   </g>
   <g id="line2d_49">
    <path clip-path="url(#p2ce4b84a3b)" style="fill: none; stroke: #424242; stroke-width: 2.7; stroke-linecap: square"/>
   </g>
   <g id="line2d_50">
    <path clip-path="url(#p2ce4b84a3b)" style="fill: none; stroke: #424242; stroke-width: 2.7; stroke-linecap: square"/>
   </g>
   <g id="line2d_51">
    <path clip-path="url(#p2ce4b84a3b)" style="fill: none; stroke: #424242; stroke-width: 2.7; stroke-linecap: square"/>
   </g>
   <g id="line2d_52">
    <path clip-path="url(#p2ce4b84a3b)" style="fill: none; stroke: #424242; stroke-width: 2.7; stroke-linecap: square"/>
   </g>
   <g id="line2d_53">
    <path clip-path="url(#p2ce4b84a3b)" style="fill: none; stroke: #424242; stroke-width: 2.7; stroke-linecap: square"/>
   </g>
   <g id="patch_29">
    <path d="M 170.180616 213.877205 
L 223.07976 213.877205 
" style="fill: none; stroke: #000000; stroke-width: 0.8; stroke-linejoin: miter; stroke-linecap: square"/>
   </g>
   <g id="text_25">
    <path d="M 175.10464 190.105319 
Q 175.18339 190.783131 175.733234 191.041881 
Q 176.014484 191.174069 176.382921 191.174069 
Q 177.086046 191.174069 177.423546 190.725475 
Q 177.762452 190.276881 177.762452 189.732662 
Q 177.762452 189.073131 177.360265 188.713131 
Q 176.958077 188.351725 176.395577 188.351725 
Q 175.987765 188.351725 175.695265 188.510631 
Q 175.402765 188.668131 175.196046 188.949381 
L 174.511202 188.910006 
L 174.989327 185.52235 
L 178.258859 185.52235 
L 178.258859 186.28735 
L 175.582765 186.28735 
L 175.315577 188.035319 
Q 175.534952 187.869381 175.733234 187.785006 
Q 176.084796 187.640162 176.546046 187.640162 
Q 177.41089 187.640162 178.012765 188.198444 
Q 178.616046 188.756725 178.616046 189.613131 
Q 178.616046 190.5061 178.06339 191.188131 
Q 177.51214 191.868756 176.304171 191.868756 
Q 175.534952 191.868756 174.942921 191.435631 
Q 174.352296 191.002506 174.281984 190.105319 
L 175.10464 190.105319 
z
M 180.110011 190.105319 
Q 180.188761 190.783131 180.738605 191.041881 
Q 181.019855 191.174069 181.388292 191.174069 
Q 182.091417 191.174069 182.428917 190.725475 
Q 182.767823 190.276881 182.767823 189.732662 
Q 182.767823 189.073131 182.365636 188.713131 
Q 181.963448 188.351725 181.400948 188.351725 
Q 180.993136 188.351725 180.700636 188.510631 
Q 180.408136 188.668131 180.201417 188.949381 
L 179.516573 188.910006 
L 179.994698 185.52235 
L 183.26423 185.52235 
L 183.26423 186.28735 
L 180.588136 186.28735 
L 180.320948 188.035319 
Q 180.540323 187.869381 180.738605 187.785006 
Q 181.090167 187.640162 181.551417 187.640162 
Q 182.416261 187.640162 183.018136 188.198444 
Q 183.621417 188.756725 183.621417 189.613131 
Q 183.621417 190.5061 183.068761 191.188131 
Q 182.517511 191.868756 181.309542 191.868756 
Q 180.540323 191.868756 179.948292 191.435631 
Q 179.357667 191.002506 179.287355 190.105319 
L 180.110011 190.105319 
z
" style="fill: #ffffff; stroke: #000000; stroke-width: 2"/>
    <path d="M 175.10464 190.105319 
Q 175.18339 190.783131 175.733234 191.041881 
Q 176.014484 191.174069 176.382921 191.174069 
Q 177.086046 191.174069 177.423546 190.725475 
Q 177.762452 190.276881 177.762452 189.732662 
Q 177.762452 189.073131 177.360265 188.713131 
Q 176.958077 188.351725 176.395577 188.351725 
Q 175.987765 188.351725 175.695265 188.510631 
Q 175.402765 188.668131 175.196046 188.949381 
L 174.511202 188.910006 
L 174.989327 185.52235 
L 178.258859 185.52235 
L 178.258859 186.28735 
L 175.582765 186.28735 
L 175.315577 188.035319 
Q 175.534952 187.869381 175.733234 187.785006 
Q 176.084796 187.640162 176.546046 187.640162 
Q 177.41089 187.640162 178.012765 188.198444 
Q 178.616046 188.756725 178.616046 189.613131 
Q 178.616046 190.5061 178.06339 191.188131 
Q 177.51214 191.868756 176.304171 191.868756 
Q 175.534952 191.868756 174.942921 191.435631 
Q 174.352296 191.002506 174.281984 190.105319 
L 175.10464 190.105319 
z
M 180.110011 190.105319 
Q 180.188761 190.783131 180.738605 191.041881 
Q 181.019855 191.174069 181.388292 191.174069 
Q 182.091417 191.174069 182.428917 190.725475 
Q 182.767823 190.276881 182.767823 189.732662 
Q 182.767823 189.073131 182.365636 188.713131 
Q 181.963448 188.351725 181.400948 188.351725 
Q 180.993136 188.351725 180.700636 188.510631 
Q 180.408136 188.668131 180.201417 188.949381 
L 179.516573 188.910006 
L 179.994698 185.52235 
L 183.26423 185.52235 
L 183.26423 186.28735 
L 180.588136 186.28735 
L 180.320948 188.035319 
Q 180.540323 187.869381 180.738605 187.785006 
Q 181.090167 187.640162 181.551417 187.640162 
Q 182.416261 187.640162 183.018136 188.198444 
Q 183.621417 188.756725 183.621417 189.613131 
Q 183.621417 190.5061 183.068761 191.188131 
Q 182.517511 191.868756 181.309542 191.868756 
Q 180.540323 191.868756 179.948292 191.435631 
Q 179.357667 191.002506 179.287355 190.105319 
L 180.110011 190.105319 
z
" style="fill: #ffffff"/>
   </g>
   <g id="text_26">
    <path d="M 174.854327 154.643533 
L 174.854327 154.037439 
Q 175.710734 153.95447 176.048234 153.759001 
Q 176.38714 153.562126 176.554484 152.833689 
L 177.178859 152.833689 
L 177.178859 159.099939 
L 176.335109 159.099939 
L 176.335109 154.643533 
L 174.854327 154.643533 
z
M 181.445948 155.443689 
Q 181.969073 155.443689 182.26298 155.151189 
Q 182.556886 154.858689 182.556886 154.455095 
Q 182.556886 154.103533 182.275636 153.809626 
Q 181.994386 153.514314 181.41923 153.514314 
Q 180.848292 153.514314 180.592355 153.809626 
Q 180.337823 154.103533 180.337823 154.498689 
Q 180.337823 154.943064 180.666886 155.193376 
Q 180.997355 155.443689 181.445948 155.443689 
z
M 181.493761 158.559939 
Q 182.043605 158.559939 182.405011 158.26322 
Q 182.767823 157.966501 182.767823 157.377283 
Q 182.767823 156.76697 182.393761 156.450564 
Q 182.021105 156.134158 181.436105 156.134158 
Q 180.869386 156.134158 180.510792 156.457595 
Q 180.153605 156.779626 180.153605 157.350564 
Q 180.153605 157.842751 180.481261 158.201345 
Q 180.808917 158.559939 181.493761 158.559939 
z
M 180.368761 155.747439 
Q 180.039698 155.606814 179.854073 155.41697 
Q 179.508136 155.065408 179.508136 154.502908 
Q 179.508136 153.799783 180.017198 153.294939 
Q 180.527667 152.788689 181.462823 152.788689 
Q 182.368448 152.788689 182.88173 153.266814 
Q 183.396417 153.743533 183.396417 154.380564 
Q 183.396417 154.968376 183.098292 155.334001 
Q 182.930948 155.54072 182.579386 155.737595 
Q 182.970323 155.917595 183.193917 156.151033 
Q 183.611573 156.591189 183.611573 157.294314 
Q 183.611573 158.124001 183.053292 158.70197 
Q 182.496417 159.279939 181.476886 159.279939 
Q 180.557198 159.279939 179.921573 158.782126 
Q 179.287355 158.282908 179.287355 157.333689 
Q 179.287355 156.775408 179.560167 156.369001 
Q 179.83298 155.962595 180.368761 155.747439 
z
" style="fill: #ffffff; stroke: #000000; stroke-width: 2"/>
    <path d="M 174.854327 154.643533 
L 174.854327 154.037439 
Q 175.710734 153.95447 176.048234 153.759001 
Q 176.38714 153.562126 176.554484 152.833689 
L 177.178859 152.833689 
L 177.178859 159.099939 
L 176.335109 159.099939 
L 176.335109 154.643533 
L 174.854327 154.643533 
z
M 181.445948 155.443689 
Q 181.969073 155.443689 182.26298 155.151189 
Q 182.556886 154.858689 182.556886 154.455095 
Q 182.556886 154.103533 182.275636 153.809626 
Q 181.994386 153.514314 181.41923 153.514314 
Q 180.848292 153.514314 180.592355 153.809626 
Q 180.337823 154.103533 180.337823 154.498689 
Q 180.337823 154.943064 180.666886 155.193376 
Q 180.997355 155.443689 181.445948 155.443689 
z
M 181.493761 158.559939 
Q 182.043605 158.559939 182.405011 158.26322 
Q 182.767823 157.966501 182.767823 157.377283 
Q 182.767823 156.76697 182.393761 156.450564 
Q 182.021105 156.134158 181.436105 156.134158 
Q 180.869386 156.134158 180.510792 156.457595 
Q 180.153605 156.779626 180.153605 157.350564 
Q 180.153605 157.842751 180.481261 158.201345 
Q 180.808917 158.559939 181.493761 158.559939 
z
M 180.368761 155.747439 
Q 180.039698 155.606814 179.854073 155.41697 
Q 179.508136 155.065408 179.508136 154.502908 
Q 179.508136 153.799783 180.017198 153.294939 
Q 180.527667 152.788689 181.462823 152.788689 
Q 182.368448 152.788689 182.88173 153.266814 
Q 183.396417 153.743533 183.396417 154.380564 
Q 183.396417 154.968376 183.098292 155.334001 
Q 182.930948 155.54072 182.579386 155.737595 
Q 182.970323 155.917595 183.193917 156.151033 
Q 183.611573 156.591189 183.611573 157.294314 
Q 183.611573 158.124001 183.053292 158.70197 
Q 182.496417 159.279939 181.476886 159.279939 
Q 180.557198 159.279939 179.921573 158.782126 
Q 179.287355 158.282908 179.287355 157.333689 
Q 179.287355 156.775408 179.560167 156.369001 
Q 179.83298 155.962595 180.368761 155.747439 
z
" style="fill: #ffffff"/>
   </g>
   <g id="text_27">
    <path d="M 195.323079 210.443506 
Q 195.358235 211.097412 195.827922 211.347724 
Q 196.069797 211.479912 196.373547 211.479912 
Q 196.940266 211.479912 197.339641 211.007412 
Q 197.740422 210.534912 197.907766 209.089287 
Q 197.643391 209.506943 197.25386 209.677099 
Q 196.865735 209.845849 196.417141 209.845849 
Q 195.507297 209.845849 194.977141 209.279131 
Q 194.448391 208.711006 194.448391 207.819443 
Q 194.448391 206.963037 194.971516 206.313349 
Q 195.494641 205.662256 196.514172 205.662256 
Q 197.889485 205.662256 198.41261 206.901162 
Q 198.702297 207.581787 198.702297 208.605537 
Q 198.702297 209.761474 198.354954 210.654443 
Q 197.779797 212.139443 196.404485 212.139443 
Q 195.481985 212.139443 195.002454 211.655693 
Q 194.522922 211.171943 194.522922 210.443506 
L 195.323079 210.443506 
z
M 196.52261 209.151162 
Q 196.993704 209.151162 197.381829 208.841787 
Q 197.77136 208.531006 197.77136 207.757568 
Q 197.77136 207.064287 197.421204 206.723974 
Q 197.072454 206.382256 196.531047 206.382256 
Q 195.951672 206.382256 195.61136 206.771787 
Q 195.271047 207.159912 195.271047 207.811006 
Q 195.271047 208.425537 195.569172 208.788349 
Q 195.868704 209.151162 196.52261 209.151162 
z
" style="fill: #ffffff; stroke: #000000; stroke-width: 2"/>
    <path d="M 195.323079 210.443506 
Q 195.358235 211.097412 195.827922 211.347724 
Q 196.069797 211.479912 196.373547 211.479912 
Q 196.940266 211.479912 197.339641 211.007412 
Q 197.740422 210.534912 197.907766 209.089287 
Q 197.643391 209.506943 197.25386 209.677099 
Q 196.865735 209.845849 196.417141 209.845849 
Q 195.507297 209.845849 194.977141 209.279131 
Q 194.448391 208.711006 194.448391 207.819443 
Q 194.448391 206.963037 194.971516 206.313349 
Q 195.494641 205.662256 196.514172 205.662256 
Q 197.889485 205.662256 198.41261 206.901162 
Q 198.702297 207.581787 198.702297 208.605537 
Q 198.702297 209.761474 198.354954 210.654443 
Q 197.779797 212.139443 196.404485 212.139443 
Q 195.481985 212.139443 195.002454 211.655693 
Q 194.522922 211.171943 194.522922 210.443506 
L 195.323079 210.443506 
z
M 196.52261 209.151162 
Q 196.993704 209.151162 197.381829 208.841787 
Q 197.77136 208.531006 197.77136 207.757568 
Q 197.77136 207.064287 197.421204 206.723974 
Q 197.072454 206.382256 196.531047 206.382256 
Q 195.951672 206.382256 195.61136 206.771787 
Q 195.271047 207.159912 195.271047 207.811006 
Q 195.271047 208.425537 195.569172 208.788349 
Q 195.868704 209.151162 196.52261 209.151162 
z
" style="fill: #ffffff"/>
   </g>
   <g id="text_28">
    <path d="M 192.487375 194.896392 
L 192.487375 194.290298 
Q 193.343782 194.207329 193.681282 194.01186 
Q 194.020188 193.814985 194.187532 193.086548 
L 194.811907 193.086548 
L 194.811907 199.352798 
L 193.968157 199.352798 
L 193.968157 194.896392 
L 192.487375 194.896392 
z
M 197.826028 197.832642 
Q 197.861184 198.486548 198.330872 198.73686 
Q 198.572747 198.869048 198.876497 198.869048 
Q 199.443215 198.869048 199.84259 198.396548 
Q 200.243372 197.924048 200.410715 196.478423 
Q 200.14634 196.896079 199.756809 197.066235 
Q 199.368684 197.234985 198.92009 197.234985 
Q 198.010247 197.234985 197.48009 196.668267 
Q 196.95134 196.100142 196.95134 195.208579 
Q 196.95134 194.352173 197.474465 193.702485 
Q 197.99759 193.051392 199.017122 193.051392 
Q 200.392434 193.051392 200.915559 194.290298 
Q 201.205247 194.970923 201.205247 195.994673 
Q 201.205247 197.15061 200.857903 198.043579 
Q 200.282747 199.528579 198.907434 199.528579 
Q 197.984934 199.528579 197.505403 199.044829 
Q 197.025872 198.561079 197.025872 197.832642 
L 197.826028 197.832642 
z
M 199.025559 196.540298 
Q 199.496653 196.540298 199.884778 196.230923 
Q 200.274309 195.920142 200.274309 195.146704 
Q 200.274309 194.453423 199.924153 194.11311 
Q 199.575403 193.771392 199.033997 193.771392 
Q 198.454622 193.771392 198.114309 194.160923 
Q 197.773997 194.549048 197.773997 195.200142 
Q 197.773997 195.814673 198.072122 196.177485 
Q 198.371653 196.540298 199.025559 196.540298 
z
" style="fill: #ffffff; stroke: #000000; stroke-width: 2"/>
    <path d="M 192.487375 194.896392 
L 192.487375 194.290298 
Q 193.343782 194.207329 193.681282 194.01186 
Q 194.020188 193.814985 194.187532 193.086548 
L 194.811907 193.086548 
L 194.811907 199.352798 
L 193.968157 199.352798 
L 193.968157 194.896392 
L 192.487375 194.896392 
z
M 197.826028 197.832642 
Q 197.861184 198.486548 198.330872 198.73686 
Q 198.572747 198.869048 198.876497 198.869048 
Q 199.443215 198.869048 199.84259 198.396548 
Q 200.243372 197.924048 200.410715 196.478423 
Q 200.14634 196.896079 199.756809 197.066235 
Q 199.368684 197.234985 198.92009 197.234985 
Q 198.010247 197.234985 197.48009 196.668267 
Q 196.95134 196.100142 196.95134 195.208579 
Q 196.95134 194.352173 197.474465 193.702485 
Q 197.99759 193.051392 199.017122 193.051392 
Q 200.392434 193.051392 200.915559 194.290298 
Q 201.205247 194.970923 201.205247 195.994673 
Q 201.205247 197.15061 200.857903 198.043579 
Q 200.282747 199.528579 198.907434 199.528579 
Q 197.984934 199.528579 197.505403 199.044829 
Q 197.025872 198.561079 197.025872 197.832642 
L 197.826028 197.832642 
z
M 199.025559 196.540298 
Q 199.496653 196.540298 199.884778 196.230923 
Q 200.274309 195.920142 200.274309 195.146704 
Q 200.274309 194.453423 199.924153 194.11311 
Q 199.575403 193.771392 199.033997 193.771392 
Q 198.454622 193.771392 198.114309 194.160923 
Q 197.773997 194.549048 197.773997 195.200142 
Q 197.773997 195.814673 198.072122 196.177485 
Q 198.371653 196.540298 199.025559 196.540298 
z
" style="fill: #ffffff"/>
   </g>
   <g id="text_29">
    <path d="M 214.209095 209.061908 
Q 214.73222 209.061908 215.026127 208.769408 
Q 215.320033 208.476908 215.320033 208.073314 
Q 215.320033 207.721752 215.038783 207.427846 
Q 214.757533 207.132533 214.182377 207.132533 
Q 213.611439 207.132533 213.355502 207.427846 
Q 213.10097 207.721752 213.10097 208.116908 
Q 213.10097 208.561283 213.430033 208.811596 
Q 213.760502 209.061908 214.209095 209.061908 
z
M 214.256908 212.178158 
Q 214.806752 212.178158 215.168158 211.881439 
Q 215.53097 211.584721 215.53097 210.995502 
Q 215.53097 210.385189 215.156908 210.068783 
Q 214.784252 209.752377 214.199252 209.752377 
Q 213.632533 209.752377 213.273939 210.075814 
Q 212.916752 210.397846 212.916752 210.968783 
Q 212.916752 211.460971 213.244408 211.819564 
Q 213.572064 212.178158 214.256908 212.178158 
z
M 213.131908 209.365658 
Q 212.802845 209.225033 212.61722 209.035189 
Q 212.271283 208.683627 212.271283 208.121127 
Q 212.271283 207.418002 212.780345 206.913158 
Q 213.290814 206.406908 214.22597 206.406908 
Q 215.131595 206.406908 215.644877 206.885033 
Q 216.159564 207.361752 216.159564 207.998783 
Q 216.159564 208.586596 215.861439 208.952221 
Q 215.694095 209.158939 215.342533 209.355814 
Q 215.73347 209.535814 215.957064 209.769252 
Q 216.37472 210.209408 216.37472 210.912533 
Q 216.37472 211.742221 215.816439 212.320189 
Q 215.259564 212.898158 214.240033 212.898158 
Q 213.320345 212.898158 212.68472 212.400346 
Q 212.050502 211.901127 212.050502 210.951908 
Q 212.050502 210.393627 212.323314 209.987221 
Q 212.596127 209.580814 213.131908 209.365658 
z
" style="fill: #ffffff; stroke: #000000; stroke-width: 2"/>
    <path d="M 214.209095 209.061908 
Q 214.73222 209.061908 215.026127 208.769408 
Q 215.320033 208.476908 215.320033 208.073314 
Q 215.320033 207.721752 215.038783 207.427846 
Q 214.757533 207.132533 214.182377 207.132533 
Q 213.611439 207.132533 213.355502 207.427846 
Q 213.10097 207.721752 213.10097 208.116908 
Q 213.10097 208.561283 213.430033 208.811596 
Q 213.760502 209.061908 214.209095 209.061908 
z
M 214.256908 212.178158 
Q 214.806752 212.178158 215.168158 211.881439 
Q 215.53097 211.584721 215.53097 210.995502 
Q 215.53097 210.385189 215.156908 210.068783 
Q 214.784252 209.752377 214.199252 209.752377 
Q 213.632533 209.752377 213.273939 210.075814 
Q 212.916752 210.397846 212.916752 210.968783 
Q 212.916752 211.460971 213.244408 211.819564 
Q 213.572064 212.178158 214.256908 212.178158 
z
M 213.131908 209.365658 
Q 212.802845 209.225033 212.61722 209.035189 
Q 212.271283 208.683627 212.271283 208.121127 
Q 212.271283 207.418002 212.780345 206.913158 
Q 213.290814 206.406908 214.22597 206.406908 
Q 215.131595 206.406908 215.644877 206.885033 
Q 216.159564 207.361752 216.159564 207.998783 
Q 216.159564 208.586596 215.861439 208.952221 
Q 215.694095 209.158939 215.342533 209.355814 
Q 215.73347 209.535814 215.957064 209.769252 
Q 216.37472 210.209408 216.37472 210.912533 
Q 216.37472 211.742221 215.816439 212.320189 
Q 215.259564 212.898158 214.240033 212.898158 
Q 213.320345 212.898158 212.68472 212.400346 
Q 212.050502 211.901127 212.050502 210.951908 
Q 212.050502 210.393627 212.323314 209.987221 
Q 212.596127 209.580814 213.131908 209.365658 
z
" style="fill: #ffffff"/>
   </g>
  </g>
  <g id="axes_5">
   <g id="patch_30">
    <path d="M 34.379928 298.909576 
L 223.07976 298.909576 
L 223.07976 236.135498 
L 34.379928 236.135498 
z
" style="fill: #ffffff"/>
   </g>
   <g id="line2d_54">
    <path d="M 45.387418 250.530575 
L 76.83739 261.660081 
L 108.287362 267.018732 
L 139.737334 269.491956 
L 171.187306 272.377383 
L 202.637278 284.166416 
" clip-path="url(#p5970d82938)" style="fill: none; stroke: #de8f05; stroke-width: 1.89; stroke-linecap: square"/>
   </g>
   <g id="line2d_55">
    <path d="M 45.387418 261.660081 
L 45.387418 238.988865 
" clip-path="url(#p5970d82938)" style="fill: none; stroke: #de8f05; stroke-linecap: square"/>
   </g>
   <g id="line2d_56">
    <path d="M 76.83739 273.201791 
L 76.83739 250.530575 
" clip-path="url(#p5970d82938)" style="fill: none; stroke: #de8f05; stroke-linecap: square"/>
   </g>
   <g id="line2d_57">
    <path d="M 108.287362 278.148238 
L 108.287362 255.466717 
" clip-path="url(#p5970d82938)" style="fill: none; stroke: #de8f05; stroke-linecap: square"/>
   </g>
   <g id="line2d_58">
    <path d="M 139.737334 280.621462 
L 139.737334 257.939941 
" clip-path="url(#p5970d82938)" style="fill: none; stroke: #de8f05; stroke-linecap: square"/>
   </g>
   <g id="line2d_59">
    <path d="M 171.187306 284.743501 
L 171.187306 258.774654 
" clip-path="url(#p5970d82938)" style="fill: none; stroke: #de8f05; stroke-linecap: square"/>
   </g>
   <g id="line2d_60">
    <path d="M 202.637278 296.056209 
L 202.637278 271.550914 
" clip-path="url(#p5970d82938)" style="fill: none; stroke: #de8f05; stroke-linecap: square"/>
   </g>
   <g id="PathCollection_7">
    <defs>
     <path id="mcfc5fda4f1" d="M 0 2.368764 
C 0.628203 2.368764 1.230762 2.119176 1.674969 1.674969 
C 2.119176 1.230762 2.368764 0.628203 2.368764 0 
C 2.368764 -0.628203 2.119176 -1.230762 1.674969 -1.674969 
C 1.230762 -2.119176 0.628203 -2.368764 0 -2.368764 
C -0.628203 -2.368764 -1.230762 -2.119176 -1.674969 -1.674969 
C -2.119176 -1.230762 -2.368764 -0.628203 -2.368764 0 
C -2.368764 0.628203 -2.119176 1.230762 -1.674969 1.674969 
C -1.230762 2.119176 -0.628203 2.368764 0 2.368764 
z
" style="stroke: #de8f05; stroke-width: 1.4175"/>
    </defs>
    <g clip-path="url(#p5970d82938)">
     <use xlink:href="#mcfc5fda4f1" x="45.387418" y="250.530575" style="fill: #de8f05; stroke: #de8f05; stroke-width: 1.4175"/>
     <use xlink:href="#mcfc5fda4f1" x="76.83739" y="261.660081" style="fill: #de8f05; stroke: #de8f05; stroke-width: 1.4175"/>
     <use xlink:href="#mcfc5fda4f1" x="108.287362" y="267.018732" style="fill: #de8f05; stroke: #de8f05; stroke-width: 1.4175"/>
     <use xlink:href="#mcfc5fda4f1" x="139.737334" y="269.491956" style="fill: #de8f05; stroke: #de8f05; stroke-width: 1.4175"/>
     <use xlink:href="#mcfc5fda4f1" x="171.187306" y="272.377383" style="fill: #de8f05; stroke: #de8f05; stroke-width: 1.4175"/>
     <use xlink:href="#mcfc5fda4f1" x="202.637278" y="284.166416" style="fill: #de8f05; stroke: #de8f05; stroke-width: 1.4175"/>
    </g>
   </g>
   <g id="matplotlib.axis_9">
    <g id="xtick_11">
     <g id="line2d_61">
      <g>
       <use xlink:href="#m8af17b9150" x="50.104914" y="298.909576" style="stroke: #000000; stroke-width: 0.8"/>
      </g>
     </g>
     <g id="text_30">
      <text style="font: 10px 'sans-serif'; text-anchor: middle" x="50.104914" y="313.083014" transform="rotate(-0, 50.104914, 313.083014)">Pre</text>
     </g>
    </g>
    <g id="xtick_12">
     <g id="line2d_62">
      <g>
       <use xlink:href="#m8af17b9150" x="81.554886" y="298.909576" style="stroke: #000000; stroke-width: 0.8"/>
      </g>
     </g>
     <g id="text_31">
      <text style="font: 10px 'sans-serif'; text-anchor: middle" x="81.554886" y="313.083014" transform="rotate(-0, 81.554886, 313.083014)">W1</text>
     </g>
    </g>
    <g id="xtick_13">
     <g id="line2d_63">
      <g>
       <use xlink:href="#m8af17b9150" x="113.004858" y="298.909576" style="stroke: #000000; stroke-width: 0.8"/>
      </g>
     </g>
     <g id="text_32">
      <text style="font: 10px 'sans-serif'; text-anchor: middle" x="113.004858" y="313.083014" transform="rotate(-0, 113.004858, 313.083014)">W2</text>
     </g>
    </g>
    <g id="xtick_14">
     <g id="line2d_64">
      <g>
       <use xlink:href="#m8af17b9150" x="144.45483" y="298.909576" style="stroke: #000000; stroke-width: 0.8"/>
      </g>
     </g>
     <g id="text_33">
      <text style="font: 10px 'sans-serif'; text-anchor: middle" x="144.45483" y="313.083014" transform="rotate(-0, 144.45483, 313.083014)">W3</text>
     </g>
    </g>
    <g id="xtick_15">
     <g id="line2d_65">
      <g>
       <use xlink:href="#m8af17b9150" x="175.904802" y="298.909576" style="stroke: #000000; stroke-width: 0.8"/>
      </g>
     </g>
     <g id="text_34">
      <text style="font: 10px 'sans-serif'; text-anchor: middle" x="175.904802" y="313.083014" transform="rotate(-0, 175.904802, 313.083014)">W4</text>
     </g>
    </g>
    <g id="xtick_16">
     <g id="line2d_66">
      <g>
       <use xlink:href="#m8af17b9150" x="207.354774" y="298.909576" style="stroke: #000000; stroke-width: 0.8"/>
      </g>
     </g>
     <g id="text_35">
      <text style="font: 10px 'sans-serif'; text-anchor: middle" x="207.354774" y="313.083014" transform="rotate(-0, 207.354774, 313.083014)">Post</text>
     </g>
    </g>
   </g>
   <g id="matplotlib.axis_10">
    <g id="ytick_8">
     <g id="line2d_67">
      <g>
       <use xlink:href="#mec5295d0b2" x="34.379928" y="290.514356" style="stroke: #000000; stroke-width: 0.8"/>
      </g>
     </g>
     <g id="text_36">
      <text style="font: 10px 'sans-serif'; text-anchor: end" x="27.379928" y="294.101075" transform="rotate(-0, 27.379928, 294.101075)">5</text>
     </g>
    </g>
    <g id="ytick_9">
     <g id="line2d_68">
      <g>
       <use xlink:href="#mec5295d0b2" x="34.379928" y="267.84314" style="stroke: #000000; stroke-width: 0.8"/>
      </g>
     </g>
     <g id="text_37">
      <text style="font: 10px 'sans-serif'; text-anchor: end" x="27.379928" y="271.429859" transform="rotate(-0, 27.379928, 271.429859)">10</text>
     </g>
    </g>
    <g id="ytick_10">
     <g id="line2d_69">
      <g>
       <use xlink:href="#mec5295d0b2" x="34.379928" y="245.171924" style="stroke: #000000; stroke-width: 0.8"/>
      </g>
     </g>
     <g id="text_38">
      <text style="font: 10px 'sans-serif'; text-anchor: end" x="27.379928" y="248.758643" transform="rotate(-0, 27.379928, 248.758643)">15</text>
     </g>
    </g>
    <g id="text_39">
     <text style="font: 10px 'sans-serif'; text-anchor: middle" x="10.173677" y="267.522537" transform="rotate(-90, 10.173677, 267.522537)">HADS-D score</text>
    </g>
   </g>
   <g id="line2d_70">
    <path d="M 50.104914 248.043611 
L 81.554886 257.414381 
L 113.004858 261.553706 
L 144.45483 262.704331 
L 175.904802 264.971453 
L 207.354774 271.646054 
" clip-path="url(#p5970d82938)" style="fill: none; stroke: #d55e00; stroke-width: 1.89; stroke-linecap: square"/>
   </g>
   <g id="line2d_71">
    <path d="M 50.104914 253.304752 
L 50.104914 242.195146 
" clip-path="url(#p5970d82938)" style="fill: none; stroke: #d55e00; stroke-linecap: square"/>
   </g>
   <g id="line2d_72">
    <path d="M 81.554886 263.762321 
L 81.554886 250.87538 
" clip-path="url(#p5970d82938)" style="fill: none; stroke: #d55e00; stroke-linecap: square"/>
   </g>
   <g id="line2d_73">
    <path d="M 113.004858 268.268225 
L 113.004858 254.39143 
" clip-path="url(#p5970d82938)" style="fill: none; stroke: #d55e00; stroke-linecap: square"/>
   </g>
   <g id="line2d_74">
    <path d="M 144.45483 270.871873 
L 144.45483 254.089269 
" clip-path="url(#p5970d82938)" style="fill: none; stroke: #d55e00; stroke-linecap: square"/>
   </g>
   <g id="line2d_75">
    <path d="M 175.904802 273.402098 
L 175.904802 256.429355 
" clip-path="url(#p5970d82938)" style="fill: none; stroke: #d55e00; stroke-linecap: square"/>
   </g>
   <g id="line2d_76">
    <path d="M 207.354774 280.237713 
L 207.354774 263.893503 
" clip-path="url(#p5970d82938)" style="fill: none; stroke: #d55e00; stroke-linecap: square"/>
   </g>
   <g id="PathCollection_8">
    <defs>
     <path id="m9f0d1b2e49" d="M 0 2.368764 
C 0.628203 2.368764 1.230762 2.119176 1.674969 1.674969 
C 2.119176 1.230762 2.368764 0.628203 2.368764 0 
C 2.368764 -0.628203 2.119176 -1.230762 1.674969 -1.674969 
C 1.230762 -2.119176 0.628203 -2.368764 0 -2.368764 
C -0.628203 -2.368764 -1.230762 -2.119176 -1.674969 -1.674969 
C -2.119176 -1.230762 -2.368764 -0.628203 -2.368764 0 
C -2.368764 0.628203 -2.119176 1.230762 -1.674969 1.674969 
C -1.230762 2.119176 -0.628203 2.368764 0 2.368764 
z
" style="stroke: #d55e00; stroke-width: 1.4175"/>
    </defs>
    <g clip-path="url(#p5970d82938)">
     <use xlink:href="#m9f0d1b2e49" x="50.104914" y="248.043611" style="fill: #d55e00; stroke: #d55e00; stroke-width: 1.4175"/>
     <use xlink:href="#m9f0d1b2e49" x="81.554886" y="257.414381" style="fill: #d55e00; stroke: #d55e00; stroke-width: 1.4175"/>
     <use xlink:href="#m9f0d1b2e49" x="113.004858" y="261.553706" style="fill: #d55e00; stroke: #d55e00; stroke-width: 1.4175"/>
     <use xlink:href="#m9f0d1b2e49" x="144.45483" y="262.704331" style="fill: #d55e00; stroke: #d55e00; stroke-width: 1.4175"/>
     <use xlink:href="#m9f0d1b2e49" x="175.904802" y="264.971453" style="fill: #d55e00; stroke: #d55e00; stroke-width: 1.4175"/>
     <use xlink:href="#m9f0d1b2e49" x="207.354774" y="271.646054" style="fill: #d55e00; stroke: #d55e00; stroke-width: 1.4175"/>
    </g>
   </g>
   <g id="patch_31">
    <path d="M 34.379928 298.909576 
L 34.379928 236.135498 
" style="fill: none; stroke: #000000; stroke-width: 0.8; stroke-linejoin: miter; stroke-linecap: square"/>
   </g>
   <g id="patch_32">
    <path d="M 34.379927 298.909576 
L 223.07976 298.909576 
" style="fill: none; stroke: #000000; stroke-width: 0.8; stroke-linejoin: miter; stroke-linecap: square"/>
   </g>
   <g id="line2d_77">
    <path d="M 54.822409 252.147683 
L 86.272381 255.98435 
L 117.722354 253.194046 
L 149.172326 260.867381 
L 180.622298 264.704049 
L 212.07227 261.419629 
" clip-path="url(#p5970d82938)" style="fill: none; stroke: #000000; stroke-width: 1.89; stroke-linecap: square"/>
   </g>
   <g id="line2d_78">
    <path d="M 54.822409 261.573677 
L 54.822409 243.079196 
" clip-path="url(#p5970d82938)" style="fill: none; stroke: #000000; stroke-linecap: square"/>
   </g>
   <g id="line2d_79">
    <path d="M 86.272381 265.052836 
L 86.272381 245.520712 
" clip-path="url(#p5970d82938)" style="fill: none; stroke: #000000; stroke-linecap: square"/>
   </g>
   <g id="line2d_80">
    <path d="M 117.722354 262.611321 
L 117.722354 244.823136 
" clip-path="url(#p5970d82938)" style="fill: none; stroke: #000000; stroke-linecap: square"/>
   </g>
   <g id="line2d_81">
    <path d="M 149.172326 269.238292 
L 149.172326 252.496471 
" clip-path="url(#p5970d82938)" style="fill: none; stroke: #000000; stroke-linecap: square"/>
   </g>
   <g id="line2d_82">
    <path d="M 180.622298 276.214051 
L 180.622298 255.635562 
" clip-path="url(#p5970d82938)" style="fill: none; stroke: #000000; stroke-linecap: square"/>
   </g>
   <g id="line2d_83">
    <path d="M 212.07227 273.510944 
L 212.07227 250.746982 
" clip-path="url(#p5970d82938)" style="fill: none; stroke: #000000; stroke-linecap: square"/>
   </g>
   <g id="PathCollection_9">
    <defs>
     <path id="m3216fbcfac" d="M 0 2.368764 
C 0.628203 2.368764 1.230762 2.119176 1.674969 1.674969 
C 2.119176 1.230762 2.368764 0.628203 2.368764 0 
C 2.368764 -0.628203 2.119176 -1.230762 1.674969 -1.674969 
C 1.230762 -2.119176 0.628203 -2.368764 0 -2.368764 
C -0.628203 -2.368764 -1.230762 -2.119176 -1.674969 -1.674969 
C -2.119176 -1.230762 -2.368764 -0.628203 -2.368764 0 
C -2.368764 0.628203 -2.119176 1.230762 -1.674969 1.674969 
C -1.230762 2.119176 -0.628203 2.368764 0 2.368764 
z
" style="stroke: #000000; stroke-width: 1.4175"/>
    </defs>
    <g clip-path="url(#p5970d82938)">
     <use xlink:href="#m3216fbcfac" x="54.822409" y="252.147683" style="stroke: #000000; stroke-width: 1.4175"/>
     <use xlink:href="#m3216fbcfac" x="86.272381" y="255.98435" style="stroke: #000000; stroke-width: 1.4175"/>
     <use xlink:href="#m3216fbcfac" x="117.722354" y="253.194046" style="stroke: #000000; stroke-width: 1.4175"/>
     <use xlink:href="#m3216fbcfac" x="149.172326" y="260.867381" style="stroke: #000000; stroke-width: 1.4175"/>
     <use xlink:href="#m3216fbcfac" x="180.622298" y="264.704049" style="stroke: #000000; stroke-width: 1.4175"/>
     <use xlink:href="#m3216fbcfac" x="212.07227" y="261.419629" style="stroke: #000000; stroke-width: 1.4175"/>
    </g>
   </g>
  </g>
  <g id="axes_6">
   <g id="patch_33">
    <path d="M 34.379928 383.941947 
L 223.07976 383.941947 
L 223.07976 321.167869 
L 34.379928 321.167869 
z
" style="fill: #ffffff"/>
   </g>
   <g id="line2d_84">
    <path d="M 45.387418 339.99945 
L 76.83739 345.892125 
L 108.287362 361.114868 
L 139.737334 360.132756 
L 171.187306 368.971768 
L 202.637278 371.181521 
" clip-path="url(#p2821dd5877)" style="fill: none; stroke: #de8f05; stroke-width: 1.89; stroke-linecap: square"/>
   </g>
   <g id="line2d_85">
    <path d="M 45.387418 353.270245 
L 45.387418 325.75882 
" clip-path="url(#p2821dd5877)" style="fill: none; stroke: #de8f05; stroke-linecap: square"/>
   </g>
   <g id="line2d_86">
    <path d="M 76.83739 356.695362 
L 76.83739 333.615719 
" clip-path="url(#p2821dd5877)" style="fill: none; stroke: #de8f05; stroke-linecap: square"/>
   </g>
   <g id="line2d_87">
    <path d="M 108.287362 370.935993 
L 108.287362 350.802687 
" clip-path="url(#p2821dd5877)" style="fill: none; stroke: #de8f05; stroke-linecap: square"/>
   </g>
   <g id="line2d_88">
    <path d="M 139.737334 369.966157 
L 139.737334 350.802687 
" clip-path="url(#p2821dd5877)" style="fill: none; stroke: #de8f05; stroke-linecap: square"/>
   </g>
   <g id="line2d_89">
    <path d="M 171.187306 378.301836 
L 171.187306 358.659587 
" clip-path="url(#p2821dd5877)" style="fill: none; stroke: #de8f05; stroke-linecap: square"/>
   </g>
   <g id="line2d_90">
    <path d="M 202.637278 381.08858 
L 202.637278 361.995768 
" clip-path="url(#p2821dd5877)" style="fill: none; stroke: #de8f05; stroke-linecap: square"/>
   </g>
   <g id="PathCollection_10">
    <g clip-path="url(#p2821dd5877)">
     <use xlink:href="#mcfc5fda4f1" x="45.387418" y="339.99945" style="fill: #de8f05; stroke: #de8f05; stroke-width: 1.4175"/>
     <use xlink:href="#mcfc5fda4f1" x="76.83739" y="345.892125" style="fill: #de8f05; stroke: #de8f05; stroke-width: 1.4175"/>
     <use xlink:href="#mcfc5fda4f1" x="108.287362" y="361.114868" style="fill: #de8f05; stroke: #de8f05; stroke-width: 1.4175"/>
     <use xlink:href="#mcfc5fda4f1" x="139.737334" y="360.132756" style="fill: #de8f05; stroke: #de8f05; stroke-width: 1.4175"/>
     <use xlink:href="#mcfc5fda4f1" x="171.187306" y="368.971768" style="fill: #de8f05; stroke: #de8f05; stroke-width: 1.4175"/>
     <use xlink:href="#mcfc5fda4f1" x="202.637278" y="371.181521" style="fill: #de8f05; stroke: #de8f05; stroke-width: 1.4175"/>
    </g>
   </g>
   <g id="matplotlib.axis_11">
    <g id="xtick_17">
     <g id="line2d_91">
      <g>
       <use xlink:href="#m8af17b9150" x="50.104914" y="383.941947" style="stroke: #000000; stroke-width: 0.8"/>
      </g>
     </g>
     <g id="text_40">
      <text style="font: 10px 'sans-serif'; text-anchor: middle" x="50.104914" y="398.115385" transform="rotate(-0, 50.104914, 398.115385)">Pre</text>
     </g>
    </g>
    <g id="xtick_18">
     <g id="line2d_92">
      <g>
       <use xlink:href="#m8af17b9150" x="81.554886" y="383.941947" style="stroke: #000000; stroke-width: 0.8"/>
      </g>
     </g>
     <g id="text_41">
      <text style="font: 10px 'sans-serif'; text-anchor: middle" x="81.554886" y="398.115385" transform="rotate(-0, 81.554886, 398.115385)">W1</text>
     </g>
    </g>
    <g id="xtick_19">
     <g id="line2d_93">
      <g>
       <use xlink:href="#m8af17b9150" x="113.004858" y="383.941947" style="stroke: #000000; stroke-width: 0.8"/>
      </g>
     </g>
     <g id="text_42">
      <text style="font: 10px 'sans-serif'; text-anchor: middle" x="113.004858" y="398.115385" transform="rotate(-0, 113.004858, 398.115385)">W2</text>
     </g>
    </g>
    <g id="xtick_20">
     <g id="line2d_94">
      <g>
       <use xlink:href="#m8af17b9150" x="144.45483" y="383.941947" style="stroke: #000000; stroke-width: 0.8"/>
      </g>
     </g>
     <g id="text_43">
      <text style="font: 10px 'sans-serif'; text-anchor: middle" x="144.45483" y="398.115385" transform="rotate(-0, 144.45483, 398.115385)">W3</text>
     </g>
    </g>
    <g id="xtick_21">
     <g id="line2d_95">
      <g>
       <use xlink:href="#m8af17b9150" x="175.904802" y="383.941947" style="stroke: #000000; stroke-width: 0.8"/>
      </g>
     </g>
     <g id="text_44">
      <text style="font: 10px 'sans-serif'; text-anchor: middle" x="175.904802" y="398.115385" transform="rotate(-0, 175.904802, 398.115385)">W4</text>
     </g>
    </g>
    <g id="xtick_22">
     <g id="line2d_96">
      <g>
       <use xlink:href="#m8af17b9150" x="207.354774" y="383.941947" style="stroke: #000000; stroke-width: 0.8"/>
      </g>
     </g>
     <g id="text_45">
      <text style="font: 10px 'sans-serif'; text-anchor: middle" x="207.354774" y="398.115385" transform="rotate(-0, 207.354774, 398.115385)">Post</text>
     </g>
    </g>
   </g>
   <g id="matplotlib.axis_12">
    <g id="ytick_11">
     <g id="line2d_97">
      <g>
       <use xlink:href="#mec5295d0b2" x="34.379928" y="379.283949" style="stroke: #000000; stroke-width: 0.8"/>
      </g>
     </g>
     <g id="text_46">
      <text style="font: 10px 'sans-serif'; text-anchor: end" x="27.379928" y="382.870667" transform="rotate(-0, 27.379928, 382.870667)">5</text>
     </g>
    </g>
    <g id="ytick_12">
     <g id="line2d_98">
      <g>
       <use xlink:href="#mec5295d0b2" x="34.379928" y="352.275856" style="stroke: #000000; stroke-width: 0.8"/>
      </g>
     </g>
     <g id="text_47">
      <text style="font: 10px 'sans-serif'; text-anchor: end" x="27.379928" y="355.862575" transform="rotate(-0, 27.379928, 355.862575)">10</text>
     </g>
    </g>
    <g id="ytick_13">
     <g id="line2d_99">
      <g>
       <use xlink:href="#mec5295d0b2" x="34.379928" y="325.267763" style="stroke: #000000; stroke-width: 0.8"/>
      </g>
     </g>
     <g id="text_48">
      <text style="font: 10px 'sans-serif'; text-anchor: end" x="27.379928" y="328.854482" transform="rotate(-0, 27.379928, 328.854482)">15</text>
     </g>
    </g>
    <g id="text_49">
     <text style="font: 10px 'sans-serif'; text-anchor: middle" x="10.173677" y="352.554908" transform="rotate(-90, 10.173677, 352.554908)">HADS-A score</text>
    </g>
   </g>
   <g id="line2d_100">
    <path d="M 50.104914 332.469921 
L 81.554886 342.192835 
L 113.004858 344.957534 
L 144.45483 352.275856 
L 175.904802 354.976665 
L 207.354774 354.715297 
" clip-path="url(#p2821dd5877)" style="fill: none; stroke: #d55e00; stroke-width: 1.89; stroke-linecap: square"/>
   </g>
   <g id="line2d_101">
    <path d="M 50.104914 340.95029 
L 50.104914 324.760953 
" clip-path="url(#p2821dd5877)" style="fill: none; stroke: #d55e00; stroke-linecap: square"/>
   </g>
   <g id="line2d_102">
    <path d="M 81.554886 351.564332 
L 81.554886 333.470221 
" clip-path="url(#p2821dd5877)" style="fill: none; stroke: #d55e00; stroke-linecap: square"/>
   </g>
   <g id="line2d_103">
    <path d="M 113.004858 352.999847 
L 113.004858 337.187645 
" clip-path="url(#p2821dd5877)" style="fill: none; stroke: #d55e00; stroke-linecap: square"/>
   </g>
   <g id="line2d_104">
    <path d="M 144.45483 362.718985 
L 144.45483 342.166147 
" clip-path="url(#p2821dd5877)" style="fill: none; stroke: #d55e00; stroke-linecap: square"/>
   </g>
   <g id="line2d_105">
    <path d="M 175.904802 364.625739 
L 175.904802 344.448015 
" clip-path="url(#p2821dd5877)" style="fill: none; stroke: #d55e00; stroke-linecap: square"/>
   </g>
   <g id="line2d_106">
    <path d="M 207.354774 363.079093 
L 207.354774 345.014336 
" clip-path="url(#p2821dd5877)" style="fill: none; stroke: #d55e00; stroke-linecap: square"/>
   </g>
   <g id="PathCollection_11">
    <g clip-path="url(#p2821dd5877)">
     <use xlink:href="#m9f0d1b2e49" x="50.104914" y="332.469921" style="fill: #d55e00; stroke: #d55e00; stroke-width: 1.4175"/>
     <use xlink:href="#m9f0d1b2e49" x="81.554886" y="342.192835" style="fill: #d55e00; stroke: #d55e00; stroke-width: 1.4175"/>
     <use xlink:href="#m9f0d1b2e49" x="113.004858" y="344.957534" style="fill: #d55e00; stroke: #d55e00; stroke-width: 1.4175"/>
     <use xlink:href="#m9f0d1b2e49" x="144.45483" y="352.275856" style="fill: #d55e00; stroke: #d55e00; stroke-width: 1.4175"/>
     <use xlink:href="#m9f0d1b2e49" x="175.904802" y="354.976665" style="fill: #d55e00; stroke: #d55e00; stroke-width: 1.4175"/>
     <use xlink:href="#m9f0d1b2e49" x="207.354774" y="354.715297" style="fill: #d55e00; stroke: #d55e00; stroke-width: 1.4175"/>
    </g>
   </g>
   <g id="patch_34">
    <path d="M 34.379928 383.941947 
L 34.379928 321.167869 
" style="fill: none; stroke: #000000; stroke-width: 0.8; stroke-linejoin: miter; stroke-linecap: square"/>
   </g>
   <g id="patch_35">
    <path d="M 34.379927 383.941947 
L 223.07976 383.941947 
" style="fill: none; stroke: #000000; stroke-width: 0.8; stroke-linejoin: miter; stroke-linecap: square"/>
   </g>
   <g id="line2d_107">
    <path d="M 54.822409 333.993455 
L 86.272381 336.48651 
L 117.722354 341.05711 
L 149.172326 342.303637 
L 180.622298 347.705256 
L 212.07227 339.672079 
" clip-path="url(#p2821dd5877)" style="fill: none; stroke: #000000; stroke-width: 1.89; stroke-linecap: square"/>
   </g>
   <g id="line2d_108">
    <path d="M 54.822409 344.796692 
L 54.822409 324.021236 
" clip-path="url(#p2821dd5877)" style="fill: none; stroke: #000000; stroke-linecap: square"/>
   </g>
   <g id="line2d_109">
    <path d="M 86.272381 346.874237 
L 86.272381 326.514291 
" clip-path="url(#p2821dd5877)" style="fill: none; stroke: #000000; stroke-linecap: square"/>
   </g>
   <g id="line2d_110">
    <path d="M 117.722354 351.029329 
L 117.722354 331.084891 
" clip-path="url(#p2821dd5877)" style="fill: none; stroke: #000000; stroke-linecap: square"/>
   </g>
   <g id="line2d_111">
    <path d="M 149.172326 354.353402 
L 149.172326 328.996958 
" clip-path="url(#p2821dd5877)" style="fill: none; stroke: #000000; stroke-linecap: square"/>
   </g>
   <g id="line2d_112">
    <path d="M 180.622298 358.924002 
L 180.622298 335.239982 
" clip-path="url(#p2821dd5877)" style="fill: none; stroke: #000000; stroke-linecap: square"/>
   </g>
   <g id="line2d_113">
    <path d="M 212.07227 353.264579 
L 212.07227 324.283196 
" clip-path="url(#p2821dd5877)" style="fill: none; stroke: #000000; stroke-linecap: square"/>
   </g>
   <g id="PathCollection_12">
    <g clip-path="url(#p2821dd5877)">
     <use xlink:href="#m3216fbcfac" x="54.822409" y="333.993455" style="stroke: #000000; stroke-width: 1.4175"/>
     <use xlink:href="#m3216fbcfac" x="86.272381" y="336.48651" style="stroke: #000000; stroke-width: 1.4175"/>
     <use xlink:href="#m3216fbcfac" x="117.722354" y="341.05711" style="stroke: #000000; stroke-width: 1.4175"/>
     <use xlink:href="#m3216fbcfac" x="149.172326" y="342.303637" style="stroke: #000000; stroke-width: 1.4175"/>
     <use xlink:href="#m3216fbcfac" x="180.622298" y="347.705256" style="stroke: #000000; stroke-width: 1.4175"/>
     <use xlink:href="#m3216fbcfac" x="212.07227" y="339.672079" style="stroke: #000000; stroke-width: 1.4175"/>
    </g>
   </g>
  </g>
 </g>
 <defs>
  <clipPath id="pa6e33e90d5">
   <rect x="34.379928" y="3.296677" width="117.799248" height="94.161118"/>
  </clipPath>
  <clipPath id="pd5331fdf05">
   <rect x="170.180616" y="3.296677" width="52.899144" height="94.161118"/>
  </clipPath>
  <clipPath id="p2605dea4f8">
   <rect x="34.379928" y="119.716087" width="117.799248" height="94.161118"/>
  </clipPath>
  <clipPath id="p2ce4b84a3b">
   <rect x="170.180616" y="119.716087" width="52.899144" height="94.161118"/>
  </clipPath>
  <clipPath id="p5970d82938">
   <rect x="34.379928" y="236.135498" width="188.699832" height="62.774079"/>
  </clipPath>
  <clipPath id="p2821dd5877">
   <rect x="34.379928" y="321.167869" width="188.699832" height="62.774079"/>
  </clipPath>
 </defs>
</svg>
